<svg width="830" height="530" viewBox="0 0 830 530" fill="none" xmlns="http://www.w3.org/2000/svg">
<g opacity="0.2">
<path d="M301.395 311.388L302.238 312.043L303.992 314.892L305.154 317.405L307.455 318.274L308.731 319.249L310.379 320.734L311.169 322.22L312.293 326.767L312.422 329.51L312.096 330.759L311.822 331.087L310.797 335.535L311.04 337.798L311.032 339.291L310.167 339.877L309.589 340.814L310.523 344.501L310.409 346.078L310.455 347.876L312.133 351.974L313.128 353.239L314.009 353.841L315.149 357.604L315.817 358.251L318.574 357.893L319.925 358.312L320.465 359.203L320.586 359.813L320.404 361.915L321.087 363.53L322.006 365.191V366.204L321.383 367.864L320.282 369.792L318.824 370.538L317.214 371.163L316.439 372.664L316.052 374.256L315.331 375.437L314.89 376.731L314.199 379.367L314.04 380.319L312.954 381.287L311.268 381.683L309.749 381.767L308.731 382.216L308.207 383.115L307.243 383.839L306.665 384.159V384.959L307.364 386.627L308.162 387.983L308.184 389.064L307.79 389.369L306.551 389.232L306.293 389.628L306.157 390.847L305.83 391.875L305.321 392.508L304.44 393.193L302.823 392.972L301.304 391.936L300.514 391.616L300.058 391.647L299.937 389.11L299.276 387.137L296.876 382.376L289.046 377.745L287.201 375.657L286.396 373.898L285.583 372.237L286.358 372.191L287.125 372.61L288.104 373.121L288.507 372.29L288.082 370.47L286.062 366.219L285.91 365.046L286.897 361.481L288.545 357.466L288.439 352.591L288.948 348.897L288.378 346.497L288.104 343.557L289.312 339.634L290.353 338.666L290.99 337.417L291.028 333.227L288.697 331.262L286.016 330.896L286.077 329.472L286.411 327.209L286.221 326.455L286.419 325.16L285.765 323.438L284.702 322.189L285.727 319.988L287.231 317.314L288.629 315.196L290.322 312.987L291.454 310.869L292.661 309.034L293.709 308.478L294.226 308.866L294.507 309.666L294.439 312.027L294.795 312.842L295.517 313.444L297.043 313.147L298.729 312.561L301.008 311.311L301.395 311.388Z" fill="#AFA8A4" stroke="white" stroke-width="0.5"/>
<path d="M235.089 126.912L235.006 127.239L234.884 128.45L234.056 129.981L233.16 131.977L233.221 133.729L235.507 139.778L237.542 143.442L237.922 144.836L239.228 145.91L237.99 147.258L237.747 149.254L236.942 150.145L236.73 151.28L237.071 152.316L237.064 153.611L237.512 155.386L235.522 155.775L233.16 155.714L232.317 155.82L231.527 156.308L230.715 156.064L228.573 154.396L227.373 154.023L226.523 154.122L225.884 154.853L224.784 155.782L223.758 156.438L223.986 157.009L228.413 158.51L229.196 160.81L228.345 162.684L228.056 163.606L227.016 164.322L225.748 164.954L224.214 165.114L224.032 166.127L224.631 169.09L224.145 169.73L223.659 170.652L224.115 173.082L225.064 173.257L225.277 173.806L225.11 174.796L224.943 175.84L224.609 176.944L224.441 177.439L223.811 177.744L221.852 177.584L220.158 178.529L216.756 181.911L215.571 182.49L214.28 183.846L214.356 186.809L214.182 187.083L213.87 187.693L209.807 186.641L209.671 186.664L206.944 187.045L205.084 188.401L202.828 189.186L198.089 188.767L193.479 189.292L192.386 189.688L191.193 189.917L190.069 190.709L189.424 191.821L188.277 193.223L186.644 194.328L184.875 195.181L184.449 195.889L183.872 196.301L182.877 195.767L182.08 195.798L181.1 195.432L177.842 195.036L174.273 194.381L172.564 193.756L170.635 193.253L168.554 192.85L166.693 192.758L165.752 192.568L161.279 191.478L158.324 191.402L154.428 190.945L146.69 189.3L144.434 188.629L142.285 188.424L139.733 187.853L137.797 186.915L136.559 185.133L135.23 182.772L132.807 179.671L132.306 178.125L133.05 176.769L133.809 175.741L133.726 175.306L133.134 175.078L128.873 176.403L124.742 178.079L123.117 178.125L121.545 177.759L119.448 177.729L117.443 178.178L113.418 178.407L111.064 179.641L109.56 182.04L108.748 183.975L108.064 184.6L106.659 184.836L104.563 184.653L103.09 184.097L101.586 182.444L99.2549 182.208L97.1131 182.17L96.5437 181.865L96.5817 180.783L95.7385 178.757L94.3412 178.125L90.7264 181.941L89.7391 182.284L86.8305 181.225L84.2862 179.595L84.0129 178.399L83.595 177.416L81.4612 176.487L78.7954 175.855H77.9449L78.2791 175.276L78.5903 174.293L78.3929 173.516L77.7701 172.701L77.4285 171.84L77.3221 171.002L77.1323 170.317L77.0183 169.669L76.8208 169.166L78.56 165.358L78.9169 162.989L77.3981 161.595L76.7524 161.183L77.2841 160.871L79.4486 161.13L80.8231 160.345L81.5446 159.561L83.4659 160.3L86.2911 161.777L87.6201 162.783L88.167 163.552L88.4783 164.2L88.3112 165.312L88.9492 165.746L90.2782 165.906L91.1668 166.249L90.8555 167.711L90.7948 168.908L92.0173 168.74L93.559 167.826L94.7589 166.173L95.5033 164.565L96.0651 160.65L96.2626 160.322L97.1891 160.627L100.933 160.46L102.703 161.191L105.505 161.313L105.452 161.922L105.946 162.882L107.191 164.261L107.799 165.16L109.097 165.32L111.11 164.824L112.279 164.306L112.727 164.672L114.558 164.314L116.183 163.202L116.585 162.356L118.226 161.755L120.443 160.376L123.489 159.317L133.475 158.174L133.863 157.313L133.718 155.34L133.984 155.051L135.237 155.539L137.257 156.003L138.814 156.696L139.809 157.611L140.743 157.649L142.186 157.009L144.138 156.597L145.961 157.55L146.492 158.57L146.173 159.096L146.204 159.926L146.773 160.619L148.254 161.747L150.153 162.714L151.14 162.638L151.504 161.701L151.854 159.454L151.983 157.047L151.55 155.668L150.525 155.333L149.302 155.219L148.649 154.929L148.885 154.175L149.857 152.21L149.849 149.581L147.639 146.58L145.718 143.678L145.725 142.688L146.88 140.966L148.649 139.595L152.59 137.31L153.829 136.837L155.424 136.456L157.717 135.512L158.818 134.544L159.562 133.493L160.641 128.016L160.891 127.78L161.21 127.46L165.228 129.357L165.585 129.037L166.268 128.732L167.574 127.277L167.863 126.18L167.833 124.085L167.954 122.112L168.205 121.48L168.805 121.716L170.536 122.737L171.911 123.895L173.194 126.797L176.194 127.567L179.984 127.643L181.336 126.348L182.566 126.051L183.956 126.447L186.887 126.896L187.214 124.558L188.9 122.112L189.667 121.259L191.816 121.343L192.34 119.515L192.871 114.449L193.32 113.893L194.884 114L196.441 114.921L196.904 115.676L197.717 115.615L198.848 115.097L200.086 114.769L202.053 115.31L206.238 117.61L208.402 118.456L209.769 118.296L211.052 118.326L215.996 121.876L219.452 122.371L222.604 122.387L223.621 121.32L224.958 120.414L226.363 120.536L227.586 121L229.97 122.539L231.072 122.935L232.537 123.186L233.608 123.529L234.557 126.196L235.089 126.912Z" fill="#AFA8A4" stroke="white" stroke-width="0.5"/>
<path d="M234.364 230.656L238.769 233.825L240.583 234.297L241.609 233.863L242.998 234.061L246.097 234.99L246.804 235.379L247.738 235.31L250.024 234.076L250.806 234.228L253.418 236.651L254.732 236.681L256.312 235.638L257.329 234.731L260.337 235.409L262.053 234.998L263.481 234.96L265.03 235.371L266.443 235.935L267.817 236.422L271.531 236.674L273.308 238.212L274.022 239.698L274.037 240.604L274.212 241.572L275.229 242.524L277.47 243.065L278.875 242.951L279.619 242.882L281.525 242.029L283.773 241.587L285.383 242.098L286.15 242.593L286.325 243.271L285.846 245.609L284.943 248.123L283.477 250.736L281.943 253.196L281.548 254.491L281.434 256.563L281.244 258.186L281.457 259.07L281.958 259.9L283.652 260.555L285.945 262.185L287.889 264.303L290.388 266.702L291.163 267.594V268.553L290.434 269.262L288.299 269.536L286.082 269.323L285.231 269.079L284.434 269.369L283.94 269.917L284.206 270.565L286.477 273.474L289.127 277.641L289.271 279.432L288.953 280.833L288.337 281.808L287.244 281.64L286.401 280.879L285.133 280.932L284.145 281.146L282.862 282.654L282.224 282.585L281.123 282.814L280.432 283.111L279.331 282.669L278.169 282.379L277.667 282.844L277.447 283.728L278.161 285.32L279.505 287.811L279.293 289.715L278.267 289.921L277.325 288.337L276.498 288.077L275.548 288.138L273.376 289.974L271.774 291.521L271.409 292.595L270.832 293.768L270.658 294.621L270.696 297.447L267.817 297.896L267.217 298.316L266.868 299.169L267.103 302.787L267.339 304.73L268.987 307.716L269.048 308.66L268.812 309.285L267.635 310.466L267.081 310.892L266.708 311.029L264.795 310.252L263.883 309.879L260.048 307.243L258.355 305.773L255.674 303.854L254.026 302.757L253.19 301.096L251.869 300.715L250.32 301.248L248.565 300.045L249.811 299.428L250.115 298.834L249.955 298.057L249.409 297.005L244.669 292.45L242.338 289.327L241.966 288.207L241.928 285.221L241.381 284.505L237.895 283.141L234.007 279.249L229.982 275.417L229.435 274.35L227.369 271.448L224.84 268.805L222.828 267.114L221.18 265.194L219.35 262.497L218.4 258.422L217.557 254.796L216.988 253.387L215.826 252.884L212.226 248.565L209.166 246.051L209.196 243.331L209.697 238.784L210.266 233.611L211.003 232.888L212.4 232.499L213.995 232.644L215.385 233.292L218.134 236.834L219.707 238.212L221.036 238.746L222.562 237.253L224.445 234.122L226.094 232.469L231.637 233.071L234.364 230.656Z" fill="#AFA8A4" stroke="white" stroke-width="0.5"/>
<path d="M483.021 276.499L482.519 283.591L480.461 286.874L477.355 285.777L473.391 286.691L471.295 290.424L470.103 291.528L469.031 292.823L468.341 297.653L468.173 305.53L466.67 306.482L465.295 306.779L459.562 313.681L462.865 315.615L464.323 317.086L466.738 321.176L470.171 325.785L470.854 328.032L467.969 327.529L466.966 327.682L466.32 328.39L464.976 328.245L463.321 328.253L461.589 329.068L460.632 329.411L459.356 328.664L456.964 326.425L455.514 324.863L454.443 324.467L453.357 324.932L449.484 325.465L448.565 326.371L446.772 327.377L444.98 327.857L442.39 328.2L441.031 328.154L440.271 328.634L439.634 330.104L439.201 331.536L438.821 332.115L435.601 332.824L434.887 333.646L434.697 334.446L434.758 335.246L432.191 334.469L430.209 334.995L429.738 335.604L429.328 336.488L429.556 337.425L430.285 338.339L430.976 340.807L431.227 343.267L430.801 344.669L429.328 345.659L426.283 346.764L423.329 346.238L422.037 346.672L419.85 346.81L417.838 347.099L414.747 348.104L411.952 348.699L409.446 346.65L406.469 345.256L403.34 344.425L402.254 345.027L401.783 345.507L399.163 343.694L397.993 343.046L397.424 342.346L396.338 339.923L395.692 339.847L393.535 340.746L391.455 340.708L390.202 340.54L386.48 340.647L385.986 342.3L385.531 342.551L384.726 342.772L382.751 342.666L380.222 343.892L377.511 344.639L375.392 344.654L373.213 344.296L371.907 344.555L369.089 344.684L367.304 346.467L364.524 346.368L362.186 346.071L362.474 345.507L362.945 338.415L364.099 335.238L364.054 334.583L363.803 334.088L362.778 333.578L362.041 331.856L360.5 327.324L359.626 326.41L357.204 325.45L355.085 324.139L353.285 322.403L349.997 318.121L351.66 317.695L352.161 316.819L353.824 314.458L354.014 313.3L353.839 312.644L352.723 311.51L351.963 309.019L352.533 306.695L352.586 305.499L352.024 304.311L352.609 302.833L353.809 302.026L354.56 301.789L357.712 301.63L359.71 298.666L360.925 297.722L362.17 296.038L362.747 295.421L363.294 294.111L363.484 292.77L360.985 290.889L360.135 289.472L359.019 287.903L357.515 286.821L354.485 284.962L353.3 283.073L352.768 280.62L351.963 278.761L351.075 277.55L350.908 276.56L350.536 275.349L350.452 272.964L351.173 269.788L351.637 268.66L352.662 268.348L355.396 266.649L355.525 264.478L356.019 263.122L356.885 262.345L357.69 261.827L359.186 263.092L362.816 265.111L364.585 266.573L364.494 267.48L363.666 268.378L362.087 269.262L361.168 270.428L360.917 271.867L361.153 272.888L362.246 273.779L368.763 272.614L375.37 273.216L384.24 275.189L390.118 275.874L394.469 274.96L402.512 276.613L410.008 278.152L417.2 278.601L421.225 277.398L424.057 275.775L426.495 272.713L432.518 268.668L438.343 266.39L445.983 264.547L451.086 263.922L451.8 264.547L458.293 268.272L461.187 268.287L463.526 268.95L464.384 269.933L464.969 270.176L468.082 269.255L469.457 271.289L471.606 274.137L475.274 275.6L478.54 276.423L479.573 276.552L483.021 276.499Z" fill="#AFA8A4" stroke="white" stroke-width="0.5"/>
<path d="M76.7544 161.183L77.4 161.595L78.9188 162.988L78.5619 165.358L76.8227 169.166L75.9038 172.244L75.805 174.598L75.9798 175.702L76.2913 175.687L77.9468 175.855H78.7974L81.4631 176.487L83.597 177.416L84.0148 178.399L84.2881 179.595L86.8324 181.225L89.741 182.284L90.7283 181.941L94.3431 178.125L95.7405 178.757L96.5836 180.783L96.5456 181.865L95.5506 185.91L95.3761 188.081L96.2341 189.513L96.3254 190.633L96.0747 191.646L94.6317 191.737L92.6953 191.189L91.0623 189.444L89.8244 189.658L88.7537 190.107L88.1993 191.753L87.7133 193.718L87.8728 194.807L88.6397 195.653L89.2321 197.435L89.665 199.751L89.9915 200.81L89.6346 201.282L88.617 201.602L87.7664 201.29L86.2931 198.525L85.6019 197.473L84.4325 197.283L82.3744 197.961L79.215 199.507L77.9317 199.5L76.8531 199.187L75.8356 197.877L74.9698 195.341L74.6963 193.748L74.0965 193.794L72.0688 193.337L71.1269 193.969L71.1195 196.559L70.9371 199.789L69.9194 201.869L67.0944 205.464L66.0615 207.026L65.6438 208.153L65.5602 209.128L65.9931 210.812L66.5778 212.419L66.0842 213.333L64.5958 213.813L63.5401 212.838L63.1375 211.101L60.8516 208.725L61.892 206.737L61.7175 206.241L57.943 205.205L56.3179 203.697L54.0394 201.046L53.6141 199.911L53.7128 196.209L53.5763 195.31L53.2725 194.868L52.1712 194.899L50.6297 196.186L49.2094 198.106L46.3085 200.277L46.0046 200.734L46.9843 202.844L46.9386 203.659L44.5693 207.018L44.1211 208.123L41.1213 210.218L39.7468 211.002L35.585 209.464L34.4306 209.281L32.5776 210.309L29.9499 211.292L25.7046 212.274L24.1402 211.558L23.4035 210.888L23.0389 209.867L21.9681 208.077L20.7683 207.018L19.9328 205.86L18.8164 204.596L18.0949 203.537L19.0519 200.14L18.3533 198.951L17.9962 197.245L18.1786 196.087L17.7987 195.805L13.9637 195.135L10.7816 195.348L8.50313 196.483L6.64252 198.372L6.4147 198.784L6.53638 199.119L7.46274 200.848L5.89068 202.676L3.48335 204.093L1.7822 204.238L1.03036 203.964L1 202.014L2.4126 201.29L3.68846 200.018L4.11375 198.22L4.26555 196.956L2.92897 195.424L3.08842 194.48L3.9237 192.697L4.40229 191.12L5.07047 189.757L7.72092 187.525L10.379 185.27L10.7816 182.878L10.9941 179.96L11.3663 179.26L14.9584 177.508L15.8547 176.814L16.3103 175.824L19.1355 172.541L21.9301 169.281L22.4998 168.184L22.9705 167.536V167.003L22.6136 166.592L21.2847 166.325L20.829 165.281L22.2796 163.423L24.0946 162.288L25.8564 162.265L26.5629 162.79L26.5249 163.407L27.2843 164.07L28.6209 164.284L30.269 164.055L31.9092 163.362L32.9195 161.709L33.5042 160.452L36.0786 159.02L37.8328 159.743L42.7161 159.934L46.2704 159.545L48.4956 158.57H51.2524L53.1054 159.119L53.4319 159.035L53.9483 158.913L54.4496 158.387L56.1962 158.029L56.4243 157.595L56.3559 157.146L56.0444 156.925L53.8952 157.153L53.0827 156.811L52.8699 156.018L53.561 154.632L55.1407 153.505L56.4773 153.23L57.4417 153.535L59.7885 155.622L60.358 155.691L60.6845 155.318L61.1708 155.104L61.9833 155.516L62.8946 156.811L63.0541 157.009L68.3019 156.552H69.479L73.0408 158.829L76.7544 161.183Z" fill="#AFA8A4" stroke="white" stroke-width="0.5"/>
<path d="M608.293 502.369L597.182 510.245L596.461 512.584L596.955 514.199L598.519 516.157L598.929 516.667L599.491 518.152L597.069 518.594L594.638 518.739L593.286 518.541L592.011 518.632L588.069 522.875L585.95 524.315L583.429 525.168L580.862 525.679L579.571 525.747L578.432 526.281L577.634 527.263L577.619 528.215L577.277 529L575.865 528.84L575.28 527.301L574.277 526.639L571.779 526.981L570.564 526.936L566.569 525.473L565.362 524.864L564.61 523.607L562.552 519.066L562.21 515.692L564.124 516.56L565.916 515.509L567.64 513.795L569.698 513.094L570.982 513.399L572.257 513.704L574.551 513.155L575.538 510.611L575.865 507.686L579.738 508.524L583.672 508.958L586.884 509.103L590.059 508.63L599.772 505.5L602.521 503.626L604.23 502.986L607.184 501.439L610.275 500.579L608.293 502.369Z" fill="#AFA8A4" stroke="white" stroke-width="0.5"/>
<path d="M189.403 52.3503L191.241 52.2664L193.101 51.4209L193.253 50.0421L193.131 47.4673L193.329 47.0941L196.146 47.8253L198.971 48.9832L199.366 51.5427L200.126 52.7997L201.022 53.95L201.872 54.4679L203.353 54.5518L207.189 56.0675L209.034 56.3723L210.925 57.4235L212.52 58.4901L213.682 58.7186L214.221 59.884L214.935 60.684L216.195 60.067L220.798 59.2061L222.454 60.3564L223.57 61.5752L223.722 61.956L223.137 63.0301L222.856 63.8604L222.378 64.4165L220.798 65.003L219.909 65.9478L219.256 66.9837L219.696 67.974L220.988 68.7205L221.899 68.8881L222.248 69.6118L225.172 72.8417L227.496 77.0541L228.4 77.7092L229.25 77.8692L230.238 77.2522L231.377 75.8811L232.721 74.8984L233.861 74.3879L235.873 73.2225L235.957 72.4684L234.27 69.6118L233.306 67.2959L233.534 66.877L235.683 67.2427L239.328 68.5073L244.941 72.6283H245.951L247.91 72.3161L250.044 71.6457L251.062 70.8839L251.442 71.1659L251.768 73.4283L251.206 74.6699L248.654 75.8734L248.799 76.4676L249.459 77.2371L250.606 77.755L252.003 79.2175L252.968 80.8859L253.811 81.6552L254.737 82.0209L257.061 81.1296L257.715 80.4289L258.011 79.9337L258.459 80.0402L259.271 80.8629L259.522 81.343L261.777 82.2722L263.084 83.415L263.911 83.9481L264.83 83.4301L268.407 84.3368L269.395 85.0983L269.706 86.363L269.531 87.1322L270.078 89.1129L274.605 93.8588L275.076 96.2811L275.144 97.2484L274.605 97.2942L273.382 97.7971L271.817 97.9798L270.124 97.8808L268.802 98.7567L267.557 100.189L266.266 101.179L265.575 102.055L265.18 102.969L260.836 105.544L260.228 106.618L259.75 108.081L259.545 110.046L259.241 111.813L258.489 112.743L256.142 113.543L255.558 113.969L255.117 114.868L253.803 116.247L252.262 117.557L249.421 119.058L246.376 119.515L242.419 119.027L240.103 118.441L238.987 119.088L237.437 121.038L235.782 124.39L235.091 126.912L234.559 126.196L233.61 123.529L232.539 123.186L231.073 122.935L229.972 122.539L227.587 121L226.365 120.536L224.959 120.414L223.623 121.32L222.605 122.387L219.454 122.371L215.998 121.876L211.054 118.326L209.771 118.296L208.404 118.456L206.239 117.61L202.055 115.31L200.088 114.769L198.85 115.097L197.718 115.615L196.906 115.676L196.443 114.921L194.886 114L193.321 113.893L192.873 114.449L192.341 119.515L191.818 121.343L189.668 121.259L188.901 122.112L187.215 124.558L186.889 126.896L183.957 126.447L182.567 126.051L181.337 126.348L179.985 127.643L176.196 127.567L173.196 126.797L171.912 123.895L170.538 122.737L168.806 121.716L168.206 121.48L167.249 119.896L165.435 117.93L162.511 115.234L160.232 115.371L159.389 114.655L159.017 113.664L158.068 111.951L156.99 110.762L155.691 110.298L153.83 108.774L151.339 105.453L149.061 103.152L146.858 103.19L145.469 101.987L144.041 100.402L142.993 98.8711L141.368 95.1385L140.183 93.0054L139.264 91.6877L138.224 90.5907L137.844 89.7147L139.12 87.7187L139.583 86.7286L140.13 85.9668L140.449 85.1592L140.433 84.5576L139.279 82.5769L137.715 81.1449L135.414 79.6976L133.948 77.8617L133.416 76.1858L133.257 75.2564L132.247 74.0071L131.434 72.1713V71.0668L131.639 70.7544H132.399L133.249 71.5085L134.449 72.9559L135.436 75.0737L136.036 74.2661L137.168 72.0114L139.173 69.4595L141.223 67.9968L143.069 67.875L144.58 67.4712L145.833 66.7398L148.028 67.0369L149.615 67.5625L150.132 67.235L150.777 65.902L151.187 64.7517L154.696 64.0813L155.903 61.857L156.579 61.8647L157.362 61.5371L158.106 60.6916L158.82 60.3411L159.389 60.7676L160.134 61.042L160.908 60.5087L162.062 57.9492L162.7 57.553L165.784 57.1569L169.991 55.6486L172.118 54.308L174.206 53.5766L176.454 52.2741L180.016 51.0097L180.183 50.4915L178.535 49.1889L177.98 48.3662L177.601 47.5207L178.185 46.5836L178.968 46.3019L179.978 46.6903L182.962 47.2464L183.782 47.7874L184.079 49.1053L184.838 50.3315L185.446 50.4687L185.225 52.4645L186.175 53.2416L187.572 53.8433L188.491 53.7214L189.152 52.9141L189.403 52.3503Z" fill="#AFA8A4" stroke="white" stroke-width="0.5"/>
<path d="M434.755 335.246L436.661 335.825L437.77 336.762L438.461 337.623L439.516 338.362L440.306 338.529L440.914 341.066L441.233 344.204L440.755 345.56L439.35 345.873L434.96 348.828L434.853 351.533L434.915 352.835L435.005 353.765L435.469 354.541V355.661L434.983 356.865L433.069 358.876L431.74 360.468L430.251 362.631L429.416 362.898L428.755 363.279L428.155 362.09L424.852 359.981L417.204 358.746L413.551 357.185L411.949 357.474L408.842 355.73L406.716 356.499L402.205 359.6L399.767 359.264L397.163 357.398L395.469 357.055L393.479 358.038L390.297 361.603L387.054 363.347L384.153 362.67L380.25 362.685L379.832 364.673L380.584 366.052L382.718 368.398L381.715 370.158L382.459 371.917L383.85 372.275L385.953 372.176L389.834 374.454L391.535 376.854L392.621 379.474L390.251 377.592L388.679 375.779L386.485 375.124L383.439 373.578L381.525 373.319L379.49 374.393L379.331 375.604L381.525 377.867L383.53 379.261L384.593 380.388L385.3 382.894L384.898 383.74L384.153 384.532L381.776 382.955L378.138 377.341L373.065 376.221L372.215 377.394L373.217 380.365L373.938 381.516L378.351 384.715L378.002 385.393L377.356 385.682L372.42 383.854L370.984 381.074L370.643 377.547L366.086 375.094L361.787 372.42L360.823 369.883L361.711 368.939L362.342 367.073L359.98 367.415L358.499 368.596L356.107 369.739L356.008 371.613L356.388 373.349L355.598 375.871L354.823 380.251L355.309 382.544L360.504 389.103L362.281 393.856L363.557 395.654L366.215 397.634L368.987 401.314L370.156 403.226L370.992 406.357L368.661 408.291L367.309 408.368L366.557 407.514L367.605 405.382L367.453 404.079L363.853 402.06L362.334 402.738L360.58 404.048L361.583 406.486L362.706 408.093L363.276 410.302L365.433 410.112L362.532 412.588L359.805 413.852L357.124 413.929L355.416 414.157L354.823 414.789L356.213 415.246L357.345 415.292L359.19 416.625L364.438 418.217L366.944 420.236L369.405 420.419L371.873 424.113L376.148 425.096L378.586 428.821L381.822 429.552L384.616 430.923L385.429 432.226L385.839 434.587L386.021 439.577L386.629 443.279L386.652 444.445L386.5 446.189L385.74 447.042L384.715 447.073L382.703 444.353L379.627 441.489L376.377 438.076L375.45 437.474L374.69 437.421L372.952 438.571L368.121 439.463L365.858 440.712L365.008 440.986L364.772 441.641L365.835 442.319L367.134 443.881V446.006L368.212 448.589L369.602 449.251L371.41 449.198L372.45 449.678L372.716 450.706L373.772 451.902L374.463 452.794L374.44 453.426L369.389 455.109L368.334 455.879L367.445 456.275L366.132 455.475L366.056 453.418L364.324 452.314L362.737 451.362L360.831 450.958L359.213 449.533L358.157 450.683L359 454.675L360.831 457.417L363.899 464.761L365.288 469.08L365.569 471.167L364.878 474.633L366.39 477.201L367.423 479.836L366.291 479.737L365.304 478.808L363.648 477.711L360.443 473.498L359.327 470.87L357.99 470.665L355.667 471.045L353.13 476.66L353.138 479.867L351.823 479.105L350.699 478.107L350.836 474.595L350.723 473.117L347.639 468.318L346.226 467.778L345.566 466.155L344.426 464.418L342.961 464.746L341.761 465.447L341.434 468.067L341.313 470.413L340.417 472.173L337.128 468.829L333.817 463.024L333.734 459.84L336.156 456.922L335.867 454.835L333.574 450.706L330.263 448.048L328.41 447.256L327.536 444.422L325.767 442.959L324.332 442.274L324.051 441.268L324.484 440.522L327.962 437.604L329.997 433.018L331.007 432.805L333.088 433.894L335.427 433.612L337.341 430.923L338.966 429.461L341.708 429.651L347.897 433.239L354.55 435.288L357.869 437.079L359.752 438.853L360.747 439.219L362.327 439.47L362.258 438.145L361.757 436.972L363.071 436.332L366.633 436.362L367.278 435.738L367.939 434.732L367.202 433.582L366.025 433.034L364.765 432.881L363.937 432.515L362.593 432.881L360.504 431.99L359.418 431.259L358.788 430.504L355.15 429.004L351.702 426.459L350.92 427.899L349.523 428.676L347.54 428.79L341.966 427.175L338.541 428.41L336.673 428.73L335.245 428.76L333.49 429.308L331.463 429.636L329.709 427.29L328.972 425.469L328.456 425.126L328.432 426.84L327.871 428.212L325.296 428.981L323.815 427.915L322.676 424.692L321.241 420.586L318.712 417.265L316.654 416.396L316.479 414.568L316.661 413.106L319.129 412.74L322.987 414.271L323.785 413.966L324.651 413.258L324.484 411.697L323.921 410.302L322.859 410.242L322.122 410.402L319.745 410.112L316.699 410.889L315.287 410.158L314.816 409.267L312.264 407.065L310.062 404.109L306.492 402.136L304.161 396.103L302.201 393.468L300.113 391.578L300.569 391.548L301.359 391.868L302.877 392.904L304.488 393.125L305.368 392.439L305.877 391.807L306.204 390.771L306.34 389.56L306.606 389.156L307.844 389.301L308.239 388.996L308.224 387.907L307.426 386.551L306.728 384.882V384.09L307.313 383.77L308.277 383.047L308.793 382.148L309.819 381.698L311.33 381.615L313.016 381.218L314.109 380.251L314.269 379.299L314.953 376.663L315.401 375.368L316.122 374.187L316.51 372.595L317.284 371.095L318.894 370.462L320.352 369.723L321.454 367.789L322.076 366.135V365.122L321.15 363.462L320.466 361.847L320.648 359.744L323.542 359.569L324.552 359.371L328.311 359.257L330.027 358.129L331.212 358.236L333.688 359.211L334.797 358.442L338.032 356.918L341.23 352.485L342.589 351.822L345.695 351.548L346.667 351.037L347.799 351.136L351.277 352.035L353.251 352.172L355.598 351.555L358.18 350.474L358.826 346.673L359.441 346.124L361.043 345.972L362.258 346.002L364.597 346.307L367.377 346.406L369.162 344.623L371.979 344.494L373.285 344.235L375.465 344.593L377.584 344.578L380.295 343.831L382.824 342.605L384.799 342.711L385.604 342.49L386.059 342.231L386.553 340.578L390.267 340.472L391.527 340.632L393.601 340.677L395.758 339.771L396.403 339.847L397.489 342.27L398.059 342.97L399.228 343.618L401.84 345.431L402.311 344.951L403.405 344.342L406.534 345.172L409.518 346.566L412.025 348.615L414.812 348.021L417.903 347.015L419.915 346.726L422.103 346.581L423.401 346.147L426.355 346.673L429.401 345.568L430.867 344.578L431.292 343.176L431.049 340.715L430.358 338.247L429.628 337.333L429.393 336.389L429.811 335.505L430.282 334.896L432.271 334.378L434.755 335.246ZM401.788 366.41L399.053 367.408L396.274 365.511L396.297 364.383L397.762 362.09L398.567 361.413L400.61 361.595L401.772 363.172L402.046 363.919L401.666 365.183L401.788 366.41ZM421.221 371.696L418.806 372.428L416.149 370.12L418.715 369.19L419.908 369.861L420.758 370.653L421.221 371.696ZM415.928 384.052L415.123 384.989L414.523 386.604L414.204 388.912L412.959 388.966L412.207 388.501L411.956 387.625L411.911 386.52L411.364 386.566L410.924 387.762L410.536 388.303L409.283 388.417L407.908 387.678L407.977 386.086L407.704 384.235L407.825 383.588L411.584 383.427L412.686 384.791L414.015 383.999L414.561 383.146L416.171 382.612L415.928 384.052ZM301.692 399.295L302.156 400.841L299.498 399.881L297.562 398.503L295.959 395.083L292.549 391.19L292.496 390.055L293.794 389.194L296.597 388.585L297.728 389.217L298.458 389.872L298.685 390.618L297.098 392.112L296.772 392.789L297.994 394.13L297.979 394.671L298.488 397.269L299.088 398.244L300.63 399.028L301.692 399.295ZM436.653 402.136L436.281 403.767L439.228 406.471L440.23 408.185L440.602 409.845L440.352 410.325L439.236 409.427L438.317 409.137L438.628 410.325L439.57 411.346L437.899 411.933L436.228 411.902L431.337 410.478L430.213 408.962L433.137 406.684L433.73 405.762L431.664 405.854L429.454 408.558L425.915 407.37L424.829 406.28L424.586 405.694L425.983 403.287L428.474 403.37L429.788 402.83L431.421 402.068L431.436 400.925L435.324 400.666L436.653 402.136ZM382.9 406.844L381.905 407.164L382.9 404.97L384.662 403.835L384.001 405.679L382.9 406.844ZM380.591 408.048L379.642 408.977L378.169 408.573L376.627 405.465L380.591 408.048ZM372.83 412.314L374.037 415.284L375.169 416.282L377.538 417.463L378.655 417.615L382.703 419.748L387.403 420.175L388.011 420.792L388.588 422.43L389.545 423.717L389.788 424.715L389.287 425.827L389.978 429.217L391.163 432.432L392.948 433.986L395.173 434.458L397.291 434.389L397.823 435.029L397.61 437.833L396.714 438.929L395.985 439.196L395.355 438.907L394.778 438.252L394.155 437.939L392.94 437.886L392.051 436.758L389.796 435.212L389.378 434.283L389.302 432.858L388.345 431.807L387.464 429.811L386.629 429.255L386.166 428.25L386.128 427.823L382.847 427.526L380.136 427.518L377.834 426.383L377.12 423.405L375.754 422.605L374.728 421.759L373.878 420.586L371.721 418.43L369.336 416.625L367.028 415.429L364.582 414.645L362.593 415.566L361.431 415.353L361.195 414.728L363.671 413.487L367.073 411.11L369.465 410.325L370.627 410.226L372.83 412.314ZM399.668 416.404L397.421 417.067L396.82 416.96L397.322 416.122L397.36 415.772L395.112 414.233L395.377 412.237L395.644 411.727L397.314 412.771L397.679 414.507L399.668 416.404ZM314.672 421.874L313.844 422.087L313.13 421.942L312.484 422.064L311.854 422.582L311.923 420.426L312.659 417.737L313.555 416.168L314.823 415.437L315.363 416.671L315.264 421.058L314.672 421.874ZM429.917 432.485L427.882 434.016L425.611 431.799L425.239 431.083L426.91 430.184L427.738 428.806L427.069 427.107L424.753 424.593L424.639 422.811L428.186 422.056L430.274 423.611L431.337 423.717L430.927 425.203L431.109 425.683L431.269 430.177L430.282 430.809L430.122 432.043L429.917 432.485ZM316.198 429.468L315.142 429.765L313.806 427.168L313.32 425.37L313.882 425.271L314.414 425.477L314.975 426.155V426.848L315.203 427.594L315.788 428.486L316.198 429.468ZM313.084 428.006L313.35 431.144L314.854 431.731L316.851 434.549L316.684 435.989L316.266 436.484L312.955 435.151L312.165 435.753L311.201 435.509L310.601 433.948L310.669 433.399L310.13 432.462L309.674 432.043L308.376 433.285L307.556 433.513V432.378L308.763 429.255L309.325 428.73L310.312 429.758L311.125 429.377L311.74 427.686L311.778 426.002L312.059 425.507L313.084 428.006ZM375.716 440.392L374.873 441.055L373.924 441.024L373.247 440.781L372.914 440.247L373.331 439.996L373.825 438.922L374.28 438.632L374.956 438.77L375.374 439.204L375.716 440.392ZM406.42 444.871L405.79 446.677L404.127 444.574L402.304 443.134L401.62 441.87L400.512 441.108L400.208 439.41L401.552 438.716L402.129 438.648L403.511 440.712L405.668 440.948L405.501 442.22L406.185 443.858L406.42 444.871ZM318.97 443.645L321.218 446.265L319.403 445.618L317.474 447.431L315.029 445.313L313.563 443.165L313.236 442.304L314.77 440.293L316.198 442.357L317.929 442.685L318.97 443.645ZM445.486 443.477L448.106 444.368L448.835 444.27L450.073 444.589L450.4 446.22L448.759 446.456L445.919 447.956L444.711 447.629L443.268 446.326L440.975 446.189L440.299 445.831L441.529 444.292L443.762 443.515L445.486 443.477ZM392.872 449.785L391.444 451.087L391.201 449.129L392.12 447.065L393.373 446.936L393.836 447.842L392.872 449.785ZM412.055 449.175L411.265 450.912L409.936 450.645L407.711 448.779L406.952 447.934L406.534 447.103L407.445 447.004L408.562 447.888L411.41 448.352L412.055 449.175ZM428.535 451.064L427.54 451.171L427.844 450.097L429.75 448.231L432.424 448.139L434.853 447.202L435.4 447.172L434.238 448.642L432.279 450.013L428.535 451.064ZM415.184 454.02L413.141 454.188L413.263 452.139L414.022 451.605L416.468 452.626L416.346 453.266L415.184 454.02ZM405.387 452.024L405.281 454.805L404.719 454.782L404.392 454.355L404.377 453.289L404.62 451.613L405.387 452.024ZM394.573 456.024L393.357 456.839L393.76 454.98L393.16 454.012L393.692 453.19L394.474 452.527L394.838 453.213L395.537 454.325L394.573 456.024ZM396.441 461.889L395.651 462.293L394.337 461.706L394.687 460.244L395.598 459.619L396.562 460.099L396.707 460.762L396.441 461.889ZM418.237 466.094L416.338 467.099L415.04 465.645L414.318 463.352L417.796 459.985L418.632 460.289L419.133 461.158L419.057 464.182L418.237 466.094ZM412.549 463.405L410.855 465.462L409.443 465.241L408.85 464.296L409.724 462.361L411.614 461.264L412.473 461.554L412.389 462.986L412.549 463.405ZM449.648 466.315L447.521 466.681L447.901 464.563L446.861 462.894L448.516 463.832L449.572 464.959L450.088 465.172L449.967 465.85L449.648 466.315ZM400.656 467.32L400.269 467.435L399.706 466.315L399.593 465.271L399.813 464.654L400.55 464.593L401.552 466.581L400.656 467.32ZM424.913 470.802L423.029 471.023L422.429 470.825L423.576 470.368L424.373 469.88L424.76 469.293L426.667 468.257L427.92 466.901L429.279 467.823L427.578 468.44L424.913 470.802ZM448.152 472.485L447.491 472.516L448.28 471.236L450.528 469.476L453.802 467.922L454.887 467.755L456.733 468.714L453.346 470.307L452.442 471.144L449.943 471.327L448.152 472.485ZM414.736 473.894L414.364 474.313L412.754 472.638L412.139 471.662L412.906 470.847L415.275 472.752L414.736 473.894ZM396.707 471.51L396.745 473.072L396.593 473.628L392.233 474.382L392.636 472.592L392.902 472.028L394.345 472.858L394.876 472.432L395.089 471.944L396.707 471.51ZM467.563 477.078L467.1 477.498L466.029 476.286L465.976 475.654L467.069 474.93L467.616 474.763L467.775 475.258L467.76 476.317L467.563 477.078ZM437.732 476.248L436.046 476.88L434.975 478.214L433.669 477.269V475.989L435.097 476.385L436.099 475.662L435.795 474.847L436.889 475.228L437.732 476.248ZM416.885 481.352L415.898 482.746L414.5 482.251L415.07 481.725L415.404 481.04L415.442 480.049L415.063 479.44L415.321 479.219L416.566 480.24L416.885 481.352ZM467.191 493.563L465.657 494.119L465.125 494.051L464.487 492.832L465.376 489.891L464.555 487.995L464.502 487.195L465.748 486.083L466.613 484.414L468.725 482.609L474.2 480.468L475.484 480.27L475.446 481.946L473.615 486.182L471.99 488.299L472.423 489.99L469.818 490.463L467.191 493.563ZM365.122 486.707L364.871 487.85L362.676 487.065L362.068 485.885L361.954 483.264L362.532 481.984L362.912 481.581L363.922 483.058L366.04 485.214L365.122 486.707ZM452.981 505.729L452.169 507.199L451.341 505.957L451.698 504.525L450.741 502.262L452.556 498.895L452.594 497.258L453.984 496.42L453.642 499.2L452.579 501.425L453.68 503.275L454.204 505.378L452.981 505.729ZM382.141 503.893L383.599 504.083L385.573 504.053L386.021 503.893L387.282 502.361L388.831 502.331L389.507 503.839L387.935 504.532L387.616 504.929L387.92 505.248L389.097 505.881L390.738 505.645L390.783 506.833L391.148 507.801L391.952 508.379L392.834 508.494L394.77 508.326L396.676 507.945L398.643 507.183L400.656 506.795L406.663 507.183L408.82 508.829L412.928 509.027L416.741 509.895L418.746 509.324L422.171 508.791L422.718 509.37L422.277 513.079L422.49 514.161L423.477 514.679L424.449 514.428L425.649 513.209L428.52 512.272H431.497L434.011 509.804L434.747 509.659L434.284 510.87L433.904 513.719L433.373 515.388L433.13 516.698L431.451 517.376L428.923 517.49L424.297 517.201L419.634 517.665L410.999 518.915L402.349 519.555L401.187 519.135L401.165 517.482L400.982 516.34L400.42 515.54L397.747 514.854L395.195 513.681L385.194 512.081L382.832 511.449L379.004 511.777L377.599 511.731L376.635 511.16L375.966 510.169L375.663 507.023L376.141 503.908L376.969 503.085L377.349 504.022L378.328 504.456L379.239 503.512L379.232 502.08L379.695 500.754L380.417 501.31L380.895 503.352L382.141 503.893Z" fill="#AFA8A4" stroke="white" stroke-width="0.5"/>
<path d="M225.779 193.2L226.926 193.665L230.723 195.783L233.351 198.167L234.809 200.81L236.784 202.852L239.275 204.299L241.249 206.257L242.707 208.725L244.75 210.111L247.37 210.409L249.026 211.254L249.725 212.648L251.152 213.905L253.302 215.032L256.635 215.649L263.03 215.802L263.6 215.832L265.042 216.183L266.728 215.741L268.787 214.865L269.447 214.339L271.604 211.46L272.796 211.711L275.166 211.361L276.601 210.721H276.708L276.616 211.46L276.457 212.747L275.295 213.654L276.472 215.748L277.596 219.146L276.966 220.822L277.733 222.124L279.89 223.061L280.087 223.435L279.427 223.823L278.88 224.928L278.819 226.939L280.702 228.843L284.53 230.626L285.752 230.923L286.223 231.608L286.861 232.058L287.241 232.606L287.264 233.315L286.983 233.802L285.168 233.97L283.102 233.955L281.629 233.094L281.492 233.726L281.469 234.442L280.042 234.876L280.832 239.805L280.512 241.222L279.988 241.702L279.502 241.504L278.902 241.45L278.606 241.915L278.857 242.966L277.452 243.088L275.219 242.547L274.194 241.595L274.019 240.628L274.004 239.721L273.29 238.236L271.513 236.697L267.8 236.446L266.425 235.958L265.004 235.402L263.455 234.983L262.028 235.021L260.304 235.432L257.296 234.754L256.279 235.661L254.699 236.705L253.385 236.682L250.773 234.259L249.99 234.107L247.705 235.341L246.77 235.409L246.056 235.021L242.966 234.092L241.568 233.894L240.543 234.335L238.728 233.863L234.323 230.687L231.597 233.101L226.053 232.5L224.405 234.153L222.521 237.283L220.995 238.777L219.666 238.243L218.094 236.864L215.344 233.322L213.955 232.683L212.36 232.53L210.97 232.926L210.226 233.642L209.656 238.815L209.155 243.362L209.125 246.082L212.178 248.596L215.785 252.915L216.939 253.41L217.517 254.819L218.36 258.453L219.309 262.528L221.139 265.225L222.787 267.145L224.799 268.836L227.328 271.479L229.394 274.381L229.941 275.448L233.959 279.272L237.855 283.164L241.333 284.528L241.88 285.244L241.91 288.23L242.29 289.35L244.613 292.473L249.36 297.036L249.907 298.087L250.066 298.864L249.763 299.459L248.517 300.083L247.499 299.39L243.08 294.941L238.804 292.13L233.981 286.828L227.526 284.726L223.129 282.395L220.463 282.745L217.524 283.477L215.709 283.5L214.418 283.081L213.507 281.633L213.643 280.514L213.484 279.059L210.909 276.72L207.393 274.496L204.067 271.616L197.384 263.816L196.039 261.294L197.354 260.814L198.348 260.86L199.472 260.342L201.295 260.334L203.452 260.845L201.546 259.169L199.168 257.524L193.017 250.972L191.179 247.864L190.967 244.513L191.422 239.911L190.313 236.606L185.567 232.317L183.828 230.054L180.327 228.706L178.754 228.836L177.813 230.511L177.129 234.229L174.023 239.119L172.99 241.237L171.365 243.987L169.953 244.177L169.125 243.934L166.604 239.302L164.196 235.783L163.862 234.115L163.642 232.058L161.804 224.463L163.095 223.396L163.892 224.615L169.505 226.085L170.72 225.438L171.456 224.44V223.808L171.935 223.625L173.909 224.585L175.519 224.364L178.117 224.318L179.97 224.478L181.2 223.739L182.856 221.02L183.471 219.496L184.215 219.131L184.701 219.314L185.058 220.57L185.931 221.744L187.724 223.655L188.992 224.577L190.139 224.905L191.263 224.136L192.424 223.915L195.751 225.408L198.561 225.69L200.634 224.912L200.361 223.838L199.601 222.642L199.442 221.485L199.578 220.479L201.006 219.481L200.938 219.039L199.214 217.28L199.298 216.823L203.072 214.834L206.71 213.722L207.294 212.861L207.629 211.566L207.788 209.136L207.591 207.148L206.117 205.282L206.026 204.337L206.376 203.355L206.953 202.463L208.411 202.082L210.12 201.443L211.472 200.704L213.294 200.094L214.729 199.241L216.134 197.207L216.985 196.872L219.559 197.161L220.114 196.659L219.757 193.734L220.22 192.987L221.132 192.568L221.557 192.157L223.827 192.477L225.779 193.2ZM189.425 239.698L186.797 240.346L185.544 239.188L185.217 238.236L183.053 237.931L181.747 236.613L181.481 236.027L183.334 234.572L184.321 232.218L185.574 233.635L187.093 236.293L187.906 237.032L189.425 239.698ZM182.552 249.22L182.385 250.378L181.094 248.908L180.44 246.272L178.808 241.999L178.595 240.795L179.438 239.607L179.392 238.396L178.238 234.633L179.203 234.016L179.78 233.939L180.015 236.552L180.539 238.053L182.111 239.896L181.792 242.936L182.111 247.255L182.43 248.215L182.552 249.22ZM189.873 246.257L190.412 247.583L188.407 246.387L186.607 245.929L186.227 245.03L186.486 244.292L186.873 243.576L188.232 243.675L188.438 244.375L189.873 246.257ZM197.482 258.91L196.936 259.702L195.554 258.247L194.285 257.211L193.382 255.977L191.604 254.438L191.005 252.679L188.354 249.083L187.959 248.108L189.28 249.563L190.382 250.477L191.293 250.698L193.602 252.991L195.873 255.931L198.576 258.483L198.014 258.559L197.482 258.91ZM197.49 271.182L197.794 271.616L197.763 271.913L196.655 271.494L196.358 271.631L191.141 265.164L190.579 263.9L192.448 265.408L197.49 271.182ZM198.386 267.038L198.72 268.081L196.062 266.116L195.052 264.798L194.87 264.204L198.386 267.038ZM201.378 269.658L202.783 271.86L201.439 271.403L200.042 270.047L199.222 268.569L201.378 269.658ZM231.513 290.348L228.149 290.424L225.225 289.891L223.797 288.984L223.903 288.215L224.344 286.935L227.602 287.088L232.561 287.994L233.776 289.053L233.397 289.54L231.513 290.348ZM240.224 294.583L238.735 294.888L229.25 294.659L226.493 294.05L223.425 292.488L222.802 292.009L225.886 291.552L228.756 292.009L229.637 293.143L237.391 294.05L240.224 294.583ZM250.317 301.249L251.866 300.716L253.18 301.104L254.016 302.765L255.663 303.862L258.344 305.781L260.038 307.251L263.873 309.887L264.784 310.253L266.698 311.037L266.736 312.104L267.556 313.315L268.422 314.709L264.488 311.967L260.82 308.897L253.643 304.159L248.555 303.008L241.591 299.192L237.057 297.836L238.789 297.524L240.778 297.516L251.517 302.612L250.317 301.249ZM228.65 298.354L232.591 299.169L235.477 298.796L238.09 299.299L239.715 300.22L240.102 300.677L237.999 300.738L235.614 300.365L232.911 301.302L230.526 300.807L229.622 300.19L228.984 299.428L228.65 298.354ZM249.049 304.966L251.958 306.954L243.429 304.341L244.393 304.105L245.297 304.052L249.049 304.966Z" fill="#AFA8A4" stroke="white" stroke-width="0.5"/>
<path d="M345.478 133.135L347.506 132.876L347.59 132.914L348.068 133.066L348.41 134.56L348.463 134.659L348.957 135.641L349.412 136.944L350.126 137.927L351.698 138.33L353.748 139.541L355.078 141.827L357.075 142.771L357.219 142.794L357.614 142.688L359.057 142.604L359.338 143.061L360.485 144.181L360.933 145.156L360.705 146.192L360.91 147.365L361.343 147.776L360.819 148.561L357.09 152.492L355.624 153.527L354.66 153.741L353.133 153.329L351.562 153.642L350.157 154.48L348.858 154.746L347.878 155.744L346.61 157.877L345.045 159.675L343.473 160.795L342.653 161.793L342.562 165.236L341.689 166.226L340.519 167.224L339.874 168.1L338.089 173.326L336.737 174.994L335.446 176.274L335.233 177.439L335.256 178.78L333.798 181.446L331.884 184.204L331.52 185.339L331.945 186.862L330.107 188.614L329.052 189.46L328.171 189.856L327.624 190.953L326.728 193.627L326.963 194.815L326.986 195.912L325.437 196.552L324.981 197.755L324.586 199.249L323.94 199.919L322.201 201.161L317.872 200.62L316.24 201.039L315.754 201.922L315.655 202.631L315.108 203.301L314.128 204.131L313.118 204.505L310.863 203.476L306.025 204.527L305.19 205.274L304.514 204.733L303.473 204.253L298.636 203.644L296.722 204.124L294.163 203.941L291.801 203.408L290.031 203.842L288.475 205.929L287.7 206.63L287.092 207.079L285.763 207.734L284.647 208.519L283.166 209.083L281.837 209.007L280.584 208.108L280.136 208.313L279.741 209.144L279.057 209.845L277.182 210.713L276.703 210.698H276.597L275.162 211.338L272.792 211.696L271.6 211.444L269.443 214.324L268.782 214.849L266.724 215.725L265.045 216.167L263.603 215.817L263.033 215.786L256.638 215.642L253.297 215.024L251.155 213.897L249.728 212.64L249.029 211.246L247.373 210.408L244.753 210.111L242.718 208.725L241.252 206.257L239.285 204.299L236.787 202.852L234.812 200.81L233.354 198.167L230.726 195.782L226.929 193.665L225.782 193.2L225.554 192.515L223.702 189.879L222.904 188.904L222.98 187.594L222.608 186.847L221.932 186.329L221.568 184.432L221.355 183.015L220.823 182.101L216.76 181.911L220.163 178.529L221.856 177.584L223.816 177.744L224.446 177.439L224.613 176.944L224.947 175.84L225.114 174.796L225.281 173.806L225.069 173.257L224.119 173.082L223.664 170.652L224.149 169.73L224.636 169.09L224.036 166.127L224.218 165.114L225.752 164.954L227.02 164.322L228.061 163.606L228.349 162.684L229.2 160.81L228.418 158.51L223.99 157.009L223.762 156.438L224.788 155.782L225.889 154.853L226.527 154.122L227.377 154.023L228.577 154.396L230.719 156.064L231.531 156.308L232.321 155.82L233.164 155.714L235.526 155.775L237.516 155.386L237.068 153.611L237.075 152.316L236.734 151.28L236.946 150.145L237.751 149.254L237.994 147.258L239.232 145.91L239.817 145.712L242.004 145.963L242.52 146.314L242.855 146.39L246.34 149.673L249.636 152.141L252.332 153.406L256.297 153.505L260.512 153.619L267.559 153.185L272.845 152.865L273.194 152.248L273.992 150.778L273.354 149.513L273.392 148.028L274.28 146.093L276.893 144.478L284.374 143.769L288.672 142.566L289.325 140.928L290.745 139.305L292.052 138.978L293.836 139.724L295.986 141.149L297.876 141.911L298.978 141.423L302.775 139.016L307.149 136.654L310.156 130.256L310.483 129.227L313.741 128.496L318.503 128.626L320.948 129.463L322.786 129.905L325.535 129.753L329.499 128.374L330.965 128.412L332.105 129.387L333.35 130.233L334.193 131.261L334.831 132.716L335.173 133.257L335.727 134.004L336.73 135.024L337.694 135.291L345.038 133.516L345.478 133.135Z" fill="#AFA8A4" stroke="white" stroke-width="0.5"/>
<path d="M165.751 192.568L165.318 194.343L164.414 194.785L162.835 195.821L161.027 197.238L159.342 198.83L158.886 200.559L159.349 201.686L159.805 202.075L160.42 201.732L161.316 201.945L162.44 202.562L164.316 203.164L164.369 203.758L163.974 204.52L162.516 205.868L161.202 207.392L161.073 208.321L161.232 208.999L161.688 209.411L163.632 209.228L163.921 209.784L162.971 213.692L163.268 214.354L164.977 214.979L166.222 215.916L168.554 218.384L169.48 220.38L168.842 221.05L167.376 221.378L166.184 221.21L167.536 220.007L164.232 215.619L162.736 215.627L160.754 217.485L155.24 215.604L154.185 216.365L153.402 217.851L151.489 219.694L148.778 220.502L145.755 222.528L142.573 223.96L140.143 225.042L138.745 224.851L140.963 222.513L140.021 222.467L137.075 224.12L135.381 225.514L134.834 227.86L134.34 231.715L135.632 232.736L137.895 237.809L140.682 239.973L140.143 242.037L139.406 243.667L137.72 245.076L136.323 244.033L135.465 244.055L134.819 247.354L136.027 256.122L137.971 262.246L139.9 264.913L144.251 269.049L148.854 271.228L157.131 278.167L161.673 280.361L162.865 281.549L165.614 286.874L167.991 293.006L170.551 302.589L172.374 307.289L176.049 312.591L183.674 320.148L190.608 325.656L197.063 329.053L202.098 329.647L214.014 328.901L216.087 329.22L218.289 330.135L218.814 332.489L218.008 334.073L215.502 335.718L212.95 337.996L212.669 341.096L215.054 343.275L226.552 349.042L238.309 353.848L241.969 356.294L246.214 360.095L256.459 365.305L258.191 367.834L264.418 373.266L267.236 377.448L267.775 380.685L266.431 383.968L265.808 386.277L264.752 388.554L262.102 387.694L259.087 385.347L254.546 375.795L246.26 374.827L244.544 374.119L241.597 372.473L241.422 371.384L240.693 370.028L239.941 369.571L236.774 369.266L234.58 370.82L231.997 374.5L229.066 379.779L226.089 387.495L225.922 390.603L227.539 393.612L232.369 395.288L236.098 397.962L238.559 400.75L238.734 407.461L239.835 411.262L238.217 413.418L235.081 412.862L230.904 414.233L227.942 416.686L226.712 419.017L227.031 425.05L226.423 427.343L220.811 431.67L217.864 436.088L217.128 437.916L216.004 439.988L208.918 440.065L207.24 437.497L207.179 433.681L208.394 431.327L210.999 430.223L212.753 425.317L212.199 421.767L213.224 420.19L214.188 419.078L216.171 418.423L218.973 417.798L219.254 412.824L217.067 410.561L216.3 407.385L215.282 401.504L211.675 393.97L209.746 387.229L208.234 383.892L205.941 382.148L201.802 382.171L199.744 381.676L192.423 376.968L191.914 376.252L191.96 374.995L193.174 373.098L192.354 370.531L191.489 368.101L190.053 366.029L188.481 364.947L185.185 365.61L184.031 366.12L181.95 365.945L180.317 366.867L179.406 366.897L181.973 363.248L181.282 362.388L178.745 360.887L175.298 360.658L174.34 360.476L173.779 361.413L173.11 360.902L173.178 359.272L169.176 351.944L166.488 348.95L165.128 348.417L162.675 349.049L158.567 347.739L156.114 347.449L154.762 347.769L152.742 348.722L151.724 348.089L151.367 347.107L147.638 344.052L142.983 342.323L133.923 332.549L131.143 328.885L125.425 324.84L121.81 318.929L118.848 316.758L114.542 315.014L113.547 315.234L112.256 315.89L111.238 315.981L110.433 315.212L111.253 314.419L112.172 314.061L111.815 311.791L106.909 305.895L104.039 303.991L103.226 302.818L102.626 301.21L102.011 300.152L100.652 299.542L99.4897 299.649L97.8873 299.245L97.9403 296.396L98.2592 294.21L98.0163 292.351L96.452 287.453L93.7482 283.294L92.1534 273.307L90.9232 270.481L87.9309 268.341L81.1794 265.933L71.77 259.451L69.7801 259.337L64.1223 256.807L60.6136 256.373L56.0571 258.643L50.5207 264.874L46.0324 271.327L44.3996 272.576L38.6051 274.77L33.4863 275.813L33.4333 274.168L33.2509 272.926L34.1167 271.563L35.5444 269.955L36.8583 267.929L37.405 266.467L37.1468 265.491L36.5544 264.044L35.7495 263.938L30.8739 265.156L29.7575 264.844L26.1501 262.947L22.2694 260.616L20.8415 258.956L20.3024 257.28L20.705 256.198L20.3859 255.147L19.6266 253.73L20.3101 252.122L21.5176 250.119L22.125 248.756L23.1427 248.405L23.6287 247.575L22.8162 244.254L22.3909 243.72L21.6921 243.309L20.6137 243.263L18.7304 242.578L17.3938 241.427L17.1053 239.874L16.3988 238.38L15.1914 237.009L15.0396 235.508L16.4141 234.716L18.2898 234.686L19.6113 234.983L22.5733 232.568L23.6667 232.355L24.6464 231.837L25.4666 228.531L26.097 227.54L26.2488 226.962L25.6641 226.268L23.2718 223.937L22.1783 221.5L20.4543 218.765L18.8518 217.554L18.5253 216.609L18.4873 215.413L18.8138 214.354L21.715 212.709L23.4313 210.957L24.168 211.627L25.7324 212.343L29.9777 211.368L32.613 210.386L34.466 209.35L35.6128 209.533L39.7746 211.079L41.1491 210.294L44.1489 208.199L44.5971 207.095L46.9664 203.743L47.0121 202.928L46.0401 200.818L46.3437 200.353L49.2449 198.19L50.6649 196.27L52.2066 194.983L53.3154 194.952L53.6192 195.394L53.7483 196.293L53.6496 199.995L54.0748 201.13L56.3533 203.781L57.9784 205.289L61.753 206.325L61.9275 206.821L60.8871 208.809L63.173 211.185L63.5832 212.922L64.6389 213.897L66.1273 213.417L66.6133 212.496L66.0285 210.888L65.5956 209.205L65.6793 208.23L66.0893 207.11L67.1296 205.541L69.9548 201.945L70.9725 199.866L71.1547 196.643L71.1623 194.053L72.104 193.421L74.1319 193.886L74.7394 193.833L75.0129 195.425L75.8785 197.961L76.8962 199.271L77.9822 199.584L79.2581 199.591L82.4173 198.045L84.4755 197.375L85.645 197.557L86.3362 198.609L87.8095 201.374L88.6524 201.686L89.6701 201.366L90.027 200.894L89.7004 199.828L89.2675 197.519L88.6751 195.729L87.9006 194.891L87.7411 193.802L88.2271 191.837L88.7815 190.191L89.8599 189.742L91.0977 189.536L92.7305 191.281L94.6671 191.829L96.1101 191.738L96.3606 190.724L96.2695 189.612L95.4113 188.18L95.5784 186.009L96.5734 181.957L97.1431 182.269L99.2846 182.307L101.616 182.536L103.12 184.189L104.593 184.752L106.689 184.928L108.094 184.699L108.778 184.074L109.59 182.14L111.094 179.74L113.448 178.506L117.473 178.277L119.486 177.828L121.574 177.851L123.146 178.224L124.772 178.178L128.903 176.503L133.163 175.177L133.756 175.398L133.847 175.84L133.08 176.861L132.335 178.216L132.837 179.763L135.259 182.863L136.581 185.232L137.826 187.007L139.763 187.944L142.307 188.516L144.464 188.721L146.719 189.391L154.458 191.045L158.354 191.502L161.308 191.57L165.751 192.568ZM139.862 271.799L140.492 270.275L140.256 269.186L138.92 269.407L137.978 270.824L138.609 272.02L139.862 271.799ZM138.882 330.059L138.867 329.83L138.707 329.853L138.639 329.99L138.707 330.081L138.882 330.059ZM95.3202 302.376L96.0267 303.504L96.1101 304.159L95.6317 304.905L95.8292 306.581L94.0444 305.187L91.3485 305.888L89.6928 305.735L89.2371 304.486L89.6168 303.755L92.1838 303.595L92.9813 303.237L94.5457 303.404L95.3202 302.376ZM79.0453 358.906L80.1163 360.704L82.5086 368.063L82.7364 369.647L82.2578 371.27L81.6503 372.42L79.2731 376.107L79.6226 379.146L80.5036 381.028L80.6327 383.108L80.1921 385.682L78.7188 401.443L78.0049 404.224L77.5569 406.623L75.9318 407.355L73.8357 406.585L71.1927 405.229L69.9701 405.313L68.7397 405.778L67.7297 405.382L66.7653 404.612L66.0438 409.99L64.8514 412.169L63.0362 413.563L61.3277 413.647L59.5656 413.182H58.0772L56.9457 412.154L56.0495 410.341L54.6218 408.139L53.1712 405.526L53.0117 403.157L52.761 397.924L53.1788 396.781L53.7863 395.684L54.0825 393.338L53.8774 391.289L54.3027 390.558L55.1458 391.289L55.776 391.015L55.738 389.956L55.928 388.029L54.819 386.414L52.9434 385.865L52.761 384.174L52.9584 382.521L53.9458 381.409L54.28 379.931L54.2876 375.414L52.9661 373.745L52.4574 371.216L51.7739 369.602L50.5435 367.971L49.1462 366.646L48.2879 365.366L48.0981 362.014L48.5841 359.211L49.0247 358.008L49.4727 358.183L50.8549 359.577L51.9864 359.889L54.2269 360.224L56.4291 359.775L59.1329 358.503L61.7377 356.964L65.5122 352.431L67.8361 351.51L69.0283 350.314L69.4385 348.699L70.4258 348.28L71.5876 349.849L73.0306 350.017L75.2557 351.312L76.2127 352.546L77.0329 354.031L77.8228 354.686L78.6657 355.059L78.7871 355.41L78.119 355.76L77.3518 357.459L77.7848 357.947L79.0453 358.906ZM50.3613 354.458L49.6549 355.745L48.6525 355.654L49.0474 354.701L49.974 352.79L51.0978 352.15L51.5991 352.721L51.0675 353.818L50.3613 354.458ZM170.832 363.873L169.883 364.117L169.328 363.782L169.024 363.355L169.396 362.296L171.333 362.929L171.31 363.523L170.832 363.873ZM54.4774 409.335L53.2472 412.047L51.9637 410.127L51.9104 408.482L52.0852 408.01L53.6649 408.703L54.4774 409.335ZM205.751 432.432L204.308 435.509L203.602 436.69L198.461 444.193L197.868 445.922L197.503 447.804L196.972 449.45L196.258 450.996L195.582 452.961L195.711 455.186L195.954 456.275L196.577 456.991L197.595 457.661L198.377 458.697L197.177 459.634L198.491 461.516L199.615 462.628L199.767 463.74L199.744 464.852L197.412 466.94L196.501 468.09L195.939 469.484L195.696 470.916L195.947 472.211L195.871 473.498L193.524 473.338L191.124 472.546L188.701 472.889L185.254 471.396L184.001 471.129L182.861 470.543L179.998 465.911L177.689 463.953L175.214 462.422L172.685 462.331L170.156 462.506L167.923 461.562L163.374 458.4L158.552 455.863L156.509 454.218L155.574 453.106L154.481 452.367L151.724 451.636L149.241 449.914L148.117 449.792L145.694 449.998L144.449 449.876L143.196 449.267L140.78 447.248L139.231 444.445L138.829 443.203L139.923 439.996L141.221 436.911L142.368 436.05L143.704 435.425L144.51 434.511L145.193 433.392L147.676 436.621L148.785 437.406L149.909 437.231L151.899 436.073L152.066 434.801L154.268 433.194L157.063 433.163L158.354 433.46L159.03 434.915L160.093 435.365L161.324 435.555L165.379 438.32L166.518 438.77L167.665 438.846L170.817 437.688L173.232 437.246L178.297 437.886L181.031 437.193L182.945 437.109L185.732 436.042L187.874 434.268L188.99 433.826L190.19 433.696L193.091 433.81L196.008 434.214L197.23 433.795L198.255 432.63L199.44 432.104L200.739 432.454L204.103 430.459L205.591 430.322L207.004 431.091L205.751 432.432ZM130.612 471.693L129.586 471.99L128.25 471.076L128.159 469.796L128.402 469.415L130.027 470.002L130.536 471.19L130.612 471.693Z" fill="#AFA8A4" stroke="white" stroke-width="0.5"/>
<path d="M333.333 320.034H333.303L329.65 320.834L328.42 321.77L327.691 323.416L327.455 324.261L326.81 324.292L325.739 323.446L324.387 322.121L322.618 322.228L316.618 325.107L316.026 326.615L315.897 329.883L315.487 330.767L314.841 331.331L312.365 330.973L312.1 330.759L312.426 329.51L312.297 326.768L311.173 322.22L310.383 320.735L308.735 319.249L307.459 318.274L305.158 317.406L303.996 314.892L302.242 312.043L301.399 311.388L301.535 311.106L301.938 308.95L301.437 307.381L300.662 306.04L301.186 305.225L302.804 305.233L304.14 305.385L304.619 304.098L307.376 303.26L310.026 302.384L310.413 301.774L309.806 300.449L310.163 299.618L313.337 297.257L313.854 296.183L314.051 295.345L313.626 294.446L313.026 293.052L313.315 292.458L314.962 291.651L316.307 290.706L317.096 290.63L317.59 291.308V292.009L318.03 293.189L319.018 293.829L320.658 294.873L322.565 295.581L324.053 296.998L326.096 299.527L326.4 300.776L328.238 301.896L329.939 303.153L329.673 305.477L335.467 307.503L336.774 307.487L337.397 307.845L337.381 308.371L336.926 309.994L334.541 314.976L334.351 316.004L332.642 317.086L332.407 317.71L332.893 319.074L333.333 320.034Z" fill="#AFA8A4"/>
<path d="M77.9445 175.855L76.289 175.687L75.9775 175.703L75.8027 174.598L75.9015 172.244L76.8204 169.167L77.0179 169.669L77.1319 170.317L77.3217 171.002L77.4281 171.841L77.7697 172.701L78.3925 173.516L78.5899 174.293L78.2787 175.276L77.9445 175.855Z" fill="#AFA8A4" stroke="white" stroke-width="0.5"/>
<path d="M32.3075 276.255L31.0078 276.812L31.0609 276.172L31.3803 275.821L31.7907 275.653L32.2697 275.935L32.3075 276.255Z" fill="#AFA8A4" stroke="white" stroke-width="0.5"/>
<path d="M475.069 225.384L474.005 223.457L472.927 221.774L472.137 220.867L472.471 220.448L473.33 219.968L473.945 219.397L473.876 217.386L473.42 215.07L473.003 213.95L472.965 212.191L472.669 209.448L473.087 204.345L474.803 197.915L475.752 194.708L475.289 192.949L475.646 188.835L474.901 186.801L473.74 184.135L472.076 178.323L469.995 176.297L467.428 174.065L466.335 172.381L465.598 170.522L464.072 168.671L462.317 166.973L460.221 162.714L459.135 160.787L458.801 160.277L456.409 157.534L455.156 155.059L454.518 153.017L454.153 151.135L452.468 147.395L450.941 144.584L449.49 142.573L448.822 141.149L447.121 139.359L444.698 137.926L443.126 137.683L441.106 137.797L441.57 136.7L445.967 133.721L447.113 134.209L449.415 134.323L454.101 134.224L456.409 132.259L457.837 132.807L458.999 131.924L460.935 130.812L461.216 131.048L461.459 131.223L464.452 131.718L466.707 132.785L468.211 134.422L469.768 135.436L471.362 135.832L472.251 136.654L472.426 137.889L473.929 138.498L476.747 138.483L477.939 139.298L477.514 140.951L477.803 141.492L478.805 140.928L479.564 141.415L479.959 142.634L480.415 143.213L481.851 141.301L483.369 141.492L487.037 142.284L488.997 146.237L490.22 147.654L491.29 148.233L492.642 147.616L493.842 146.885L494.526 147.228L496.014 149.841L496.356 153.253L496.348 154.624L495.824 156.94L495.072 159.393L494.48 160.993L494.731 162.272L495.262 163.346L496.128 163.697L498.968 165.86L500.031 167.369L501.573 168.481L502.743 168.542L503.35 169.159L503.563 169.921L503.403 171.84L502.75 173.638L502.834 174.796L503.867 176.167L503.981 177.751L504.049 178.772L504.596 179.557L507.2 181.301L510.565 182.985L511.423 184.432L511.947 186.26L511.78 189.33L511.56 191.996L515.965 195.577L515.463 196.247L514.78 196.978L510.573 197.519L509.715 197.816L507.884 195.127L506.92 194.785L506.024 195.775L504.96 196.323L503.692 196.049L502.325 195.219L501.634 194.632L501.08 194.563L500.229 195.15L499.097 194.899L498.353 194.236L497.282 196.521L496.629 197.001L496.219 196.933L496.136 193.048L495.824 192.461L494.973 192.362L492.923 193.291L490.971 194.487L490.31 195.546L490.379 197.458L490.66 199.736L491.989 203.187L491.26 204.687L490.743 207.079L488.655 209.266L486.286 210.538L486.088 213.143L484.774 214.918L482.526 216.693L481.023 218.833L481.402 220.288L481.494 221.675L481.235 222.612L481.182 223.335L480.59 223.655L477.157 223.922L476.185 224.371L475.069 225.384Z" fill="#AFA8A4" stroke="white" stroke-width="0.5"/>
<path d="M282.863 282.654L282.81 283.012L282.908 284.071L283.387 285.099L285.08 286.15L287.564 288.238L290.48 292.062L291.817 293.189L293.024 293.471L295.371 295.048L297.012 295.436L298.842 295.871L303.611 299.169L305.76 300.129L307.279 301.371L307.446 302.536L307.378 303.26L304.621 304.098L304.143 305.385L302.806 305.233L301.189 305.225L300.664 306.04L301.439 307.381L301.94 308.95L301.538 311.106L301.401 311.388L301.014 311.312L298.736 312.561L297.049 313.147L295.523 313.444L294.802 312.843L294.445 312.028L294.513 309.666L294.232 308.866L293.716 308.478L292.667 309.034L291.46 310.87L290.329 312.987L288.635 315.197L287.237 317.314L285.734 319.988L284.708 322.19L285.772 323.439L286.425 325.16L286.227 326.455L286.417 327.21L286.083 329.472L286.022 330.896L282.696 328.619L281.329 325.412L276.469 319.98L270.902 316.278L270.605 315.692L270.909 314.976L271.175 314.412L270.013 314.366L269.208 314.823L268.434 314.694L267.568 313.3L266.747 312.096L266.709 311.03L267.082 310.893L267.636 310.466L268.813 309.285L269.049 308.661L268.988 307.716L267.34 304.73L267.104 302.787L266.869 299.169L267.218 298.316L267.818 297.897L270.697 297.447L270.659 294.621L270.833 293.768L271.411 292.595L271.775 291.521L273.377 289.975L275.549 288.139L276.499 288.078L277.327 288.337L278.268 289.921L279.294 289.716L279.506 287.811L278.162 285.32L277.448 283.728L277.668 282.844L278.17 282.38L279.332 282.669L280.433 283.111L281.124 282.814L282.225 282.585L282.863 282.654Z" fill="#AFA8A4" stroke="white" stroke-width="0.5"/>
<path d="M349.994 318.121L353.283 322.403L355.082 324.139L357.201 325.45L359.624 326.409L360.497 327.323L362.039 331.856L362.776 333.578L363.801 334.088L364.051 334.583L364.097 335.238L362.942 338.415L362.472 345.507L362.183 346.07L360.976 346.04L359.366 346.192L358.758 346.741L358.112 350.542L355.523 351.624L353.176 352.233L351.202 352.096L347.723 351.197L346.592 351.098L345.619 351.609L342.513 351.883L341.154 352.545L337.957 356.979L334.721 358.51L333.613 359.279L331.145 358.304L329.96 358.198L328.244 359.325L324.492 359.439L323.482 359.637L320.589 359.813L320.467 359.203L319.928 358.312L318.576 357.893L315.819 358.251L315.151 357.604L314.012 353.841L313.131 353.239L312.136 351.974L310.458 347.876L310.412 346.078L310.526 344.501L309.592 340.814L310.169 339.877L311.035 339.291L311.042 337.798L310.799 335.535L311.825 331.087L312.098 330.759L312.364 330.972L314.839 331.33L315.485 330.767L315.895 329.883L316.024 326.615L316.617 325.107L322.616 322.227L324.386 322.121L325.737 323.446L326.808 324.292L327.454 324.261L327.689 323.416L328.418 321.77L329.649 320.833L333.302 320.033H333.332L334.524 320.193L337.099 319.455L338.709 318.434L339.529 318.281L340.615 317.893L342.18 317.946L343.767 318.388L345.787 317.801L347.769 316.849L348.566 317.093L349.425 317.9L349.994 318.121Z" fill="#AFA8A4" stroke="white" stroke-width="0.5"/>
<path d="M178.832 490.981L177.556 491.385L176.287 490.592L175.991 490.112L177.754 489.709L178.619 490.067L178.984 490.752L178.832 490.981ZM184.216 495.582L183.502 496.435L181.452 496.397L179.66 495.064L179.644 492.276L181.71 492.824L183.601 494.69L184.216 495.582Z" fill="#AFA8A4" stroke="white" stroke-width="0.5"/>
<path d="M475.066 225.385L477.314 228.515L480.162 230.184L486.754 231.943L487.346 231.73L487.407 231.403L486.952 230.945L486.883 230.367L487.202 229.651L488.113 229.612L489.602 230.252L492.442 229.323L496.619 226.824L500.462 226.322L503.956 227.799L505.748 229.521L506.902 231.159L506.537 233.177L506.317 234.434L505.398 239.622L504.76 241.557L503.735 243.72L492.883 246.303L493.581 245.061L493.331 242.89L492.875 241.245L493.885 239.767L491.447 239.226L490.377 240.041L489.541 241.458L490.278 244.726L489.093 246.531L488.637 247.537L488.584 249.921L487.878 250.942L487.741 252.069L489.473 251.78L488.691 253.829L485.44 257.76L484.301 260.106L484.582 269.361L483.132 274.876L483.018 276.499L479.569 276.552L478.537 276.423L475.271 275.6L471.603 274.137L469.454 271.288L468.079 269.255L464.965 270.176L464.38 269.932L463.523 268.95L461.184 268.287L458.29 268.272L451.797 264.547L451.083 263.922L445.979 264.547L438.34 266.39L432.514 268.668L426.492 272.713L424.054 275.775L421.221 277.398L417.197 278.601L410.005 278.152L402.509 276.613L394.466 274.96L390.115 275.874L384.237 275.189L375.366 273.216L368.759 272.614L362.243 273.779L361.15 272.888L360.914 271.867L361.165 270.428L362.084 269.262L363.663 268.378L364.491 267.48L364.582 266.573L362.813 265.111L359.182 263.092L357.687 261.827L357.322 261.515L357.223 260.38L356.471 259.489L355.059 258.834L353.973 257.653L353.198 255.939L353.365 254.324L354.466 252.808L355.879 252.145L357.595 252.351L358.309 251.917L358.021 250.858L356.342 249.495L353.266 247.841L350.138 248.74L346.94 252.199L344.647 252.755L343.234 250.431L340.728 249.037L337.121 248.603L334.903 247.712L334.075 246.364L332.496 245.327L329.017 244.223L328.972 243.172L329.534 242.92L330.772 242.821L332.427 242.6L332.693 241.999L332.708 241.45L331.402 240.757L330.088 240.285L329.397 239.812L328.957 239.287L328.865 238.738L329.253 238.365L329.785 238.342L330.308 238.015L330.605 236.743L331.318 235.691L331.827 235.326L331.797 234.549L331.266 233.825L330.544 233.2L329.48 232.819L326.169 231.723L324.499 230.199L323.474 230.138L321.856 229.293L320.109 227.967L318.59 226.078L316.957 224.851L316.532 224.349L316.494 223.876L316.798 223.343L316.783 222.764L316.358 220.913L316.646 218.948L316.57 217.097L316.548 216.266L316.228 216.007L315.947 216.289L315.545 216.64L315.15 216.708L313.943 215.36L312.416 212.61L311.383 211.688L309.371 210.424L307.67 209.357L306.454 207.057L305.186 205.274L306.021 204.528L310.859 203.476L313.115 204.505L314.125 204.131L315.105 203.301L315.651 202.631L315.75 201.922L316.236 201.039L317.869 200.62L322.198 201.161L323.937 199.919L324.582 199.249L324.977 197.755L325.433 196.552L326.982 195.912L326.959 194.815L326.724 193.627L327.62 190.953L328.167 189.856L329.048 189.46L330.103 188.614L331.941 186.862L331.516 185.339L331.881 184.204L333.795 181.446L335.252 178.78L335.23 177.439L335.442 176.274L336.733 174.994L338.085 173.326L339.87 168.1L340.515 167.224L341.685 166.226L342.558 165.236L342.649 161.793L343.47 160.795L345.042 159.675L346.606 157.877L347.875 155.744L348.854 154.746L350.153 154.48L351.558 153.642L353.13 153.329L354.656 153.741L355.621 153.528L357.086 152.492L360.815 148.561L361.339 147.776L362.114 147.235L365.136 145.887L365.904 144.531L366.944 143.312L368.288 143.404L372.678 146.42L377.371 146.23L378.229 146.344L378.511 146.405L379.088 146.649L385.33 148.142L386.295 147.974L386.561 147.86L389.074 149.087L391.299 148.926L393.411 148.073L395.605 147.784L397.626 148.294L399.16 150.023L403.147 153.695L404.331 155.066L406.154 154.861L408.174 154.175L410.217 151.73L416.498 148.942L421.29 148.249L425.968 147.129L431.383 146.336L432.947 144.051L433.813 142.49L434.428 139.595L437.344 138.757L440.117 138.163L441.104 137.797L443.124 137.683L444.696 137.927L447.119 139.359L448.82 141.149L449.488 142.573L450.939 144.585L452.465 147.395L454.151 151.136L454.516 153.017L455.154 155.059L456.406 157.534L458.799 160.277L459.133 160.787L460.219 162.714L462.315 166.973L464.069 168.671L465.596 170.523L466.332 172.381L467.426 174.065L469.993 176.297L472.074 178.323L473.737 184.135L474.899 186.801L475.643 188.835L475.286 192.949L475.749 194.708L474.8 197.915L473.084 204.345L472.666 209.449L472.962 212.191L473 213.951L473.418 215.07L473.874 217.386L473.942 219.397L473.327 219.969L472.469 220.448L472.135 220.867L472.924 221.774L474.003 223.457L475.066 225.385Z" fill="#AFA8A4" stroke="white" stroke-width="0.5"/>
<path d="M294.163 203.941L296.722 204.124L298.636 203.644L303.473 204.253L304.514 204.733L305.189 205.274L306.458 207.057L307.673 209.357L309.374 210.423L311.386 211.688L312.42 212.61L313.946 215.36L315.153 216.708L315.548 216.64L315.951 216.289L316.232 216.007L316.551 216.266L316.574 217.097L316.65 218.948L316.361 220.913L316.786 222.764L316.801 223.343L316.498 223.876L316.536 224.349L316.961 224.851L318.594 226.078L320.113 227.967L321.859 229.292L323.477 230.138L324.502 230.199L326.173 231.722L329.484 232.819L330.547 233.2L331.269 233.825L331.801 234.549L331.831 235.326L331.322 235.691L330.608 236.742L330.312 238.015L329.788 238.342L329.256 238.365L328.869 238.738L328.96 239.287L329.4 239.812L330.092 240.285L331.406 240.757L332.712 241.45L332.697 241.999L332.431 242.6L330.775 242.821L329.537 242.92L328.975 243.172L329.021 244.223L332.499 245.327L334.079 246.364L334.907 247.712L337.124 248.603L340.731 249.037L343.238 250.431L344.65 252.755L346.944 252.199L350.141 248.74L353.27 247.841L356.346 249.494L358.024 250.858L358.312 251.917L357.599 252.351L355.882 252.145L354.47 252.808L353.369 254.324L353.202 255.939L353.976 257.653L355.062 258.834L356.475 259.489L357.226 260.38L357.325 261.515L357.69 261.827L356.885 262.345L356.019 263.122L355.525 264.478L355.396 266.649L352.662 268.348L351.637 268.66L351.174 269.788L350.452 272.964L350.536 275.349L350.908 276.56L351.075 277.55L351.964 278.761L352.769 280.62L353.3 283.073L354.485 284.962L357.515 286.821L359.019 287.902L360.135 289.472L360.986 290.889L363.485 292.77L363.294 294.111L362.748 295.421L362.17 296.038L360.925 297.722L359.71 298.666L357.713 301.629L354.561 301.789L353.809 302.026L352.609 302.833L352.024 304.311L352.587 305.499L352.533 306.695L351.964 309.019L352.723 311.509L353.839 312.644L354.014 313.299L353.824 314.457L352.161 316.819L351.66 317.695L349.997 318.121L349.427 317.901L348.569 317.093L347.771 316.849L345.789 317.802L343.769 318.388L342.182 317.946L340.617 317.893L339.532 318.282L338.711 318.434L337.101 319.455L334.527 320.193L333.334 320.033L332.894 319.074L332.408 317.71L332.643 317.086L334.352 316.004L334.542 314.975L336.927 309.994L337.382 308.371L337.398 307.845L336.775 307.487L335.468 307.503L329.674 305.476L329.94 303.153L328.239 301.896L326.401 300.776L326.097 299.527L324.054 296.998L322.566 295.581L320.659 294.872L319.019 293.829L318.031 293.189L317.591 292.008V291.307L317.097 290.63L316.308 290.706L314.963 291.65L313.316 292.458L313.027 293.052L313.627 294.446L314.052 295.345L313.855 296.183L313.338 297.257L310.164 299.618L309.807 300.449L310.414 301.774L310.027 302.384L307.377 303.26L307.445 302.536L307.278 301.37L305.759 300.129L303.61 299.169L298.84 295.87L297.01 295.436L295.37 295.048L293.023 293.471L291.816 293.189L290.479 292.062L287.563 288.238L285.079 286.15L283.386 285.099L282.907 284.071L282.808 283.012L282.862 282.654L284.145 281.146L285.133 280.932L286.401 280.879L287.244 281.641L288.337 281.808L288.953 280.833L289.271 279.432L289.127 277.641L286.477 273.475L284.206 270.565L283.94 269.917L284.434 269.369L285.231 269.079L286.082 269.323L288.299 269.536L290.433 269.262L291.163 268.554V267.594L290.388 266.702L287.889 264.303L285.945 262.185L283.652 260.555L281.958 259.9L281.457 259.07L281.244 258.186L281.434 256.563L281.548 254.491L281.943 253.197L283.477 250.736L284.943 248.123L285.846 245.609L286.325 243.271L286.15 242.593L285.383 242.098L283.773 241.587L281.525 242.029L279.619 242.882L278.875 242.951L278.624 241.9L278.92 241.435L279.52 241.496L280.014 241.694L280.538 241.214L280.857 239.805L280.059 234.869L281.487 234.434L281.51 233.718L281.639 233.086L283.113 233.947L285.178 233.962L286.993 233.787L287.267 233.299L287.251 232.598L286.872 232.042L286.226 231.6L285.763 230.915L284.54 230.61L280.705 228.828L278.822 226.931L278.882 224.912L279.429 223.808L280.09 223.419L279.892 223.046L277.736 222.109L276.968 220.806L277.599 219.138L276.475 215.733L275.29 213.638L276.452 212.732L276.612 211.437L276.703 210.698L277.181 210.713L279.057 209.845L279.74 209.144L280.135 208.314L280.584 208.108L281.836 209.007L283.165 209.083L284.646 208.519L285.763 207.734L287.092 207.079L287.7 206.63L288.474 205.929L290.031 203.842L291.8 203.408L294.163 203.941Z" fill="#AFA8A4" stroke="white" stroke-width="0.5"/>
<path d="M225.781 193.2L223.898 192.446L221.627 192.126L221.202 192.537L220.29 192.956L219.827 193.703L220.177 196.628L219.63 197.131L217.047 196.841L216.197 197.176L214.792 199.21L213.357 200.071L211.534 200.68L210.182 201.412L208.474 202.051L207.023 202.44L206.446 203.324L206.097 204.306L206.187 205.251L207.668 207.117L207.866 209.106L207.706 211.536L207.365 212.83L206.78 213.691L203.142 214.803L199.368 216.792L199.284 217.249L201.008 219.008L201.077 219.45L199.649 220.448L199.512 221.454L199.672 222.611L200.431 223.808L200.704 224.882L198.631 225.659L195.821 225.369L192.495 223.884L191.333 224.097L190.209 224.874L189.055 224.539L187.786 223.617L185.994 221.705L185.121 220.524L184.764 219.275L184.277 219.092L183.533 219.458L182.918 220.981L181.263 223.701L180.032 224.44L178.187 224.28L175.59 224.326L173.972 224.554L171.997 223.594L171.519 223.777V224.409L170.782 225.4L169.567 226.055L163.955 224.584L163.158 223.366L164.426 222.787L166.18 221.21L167.373 221.385L168.846 221.05L169.483 220.38L168.557 218.384L166.218 215.916L164.98 214.979L163.271 214.354L162.983 213.691L163.924 209.783L163.636 209.227L161.692 209.41L161.236 209.007L161.076 208.328L161.206 207.399L162.519 205.868L163.978 204.52L164.373 203.766L164.319 203.164L162.443 202.57L161.32 201.952L160.423 201.739L159.808 202.082L159.361 201.693L158.897 200.566L159.353 198.837L161.038 197.245L162.846 195.828L164.418 194.792L165.322 194.35L165.755 192.568L166.696 192.758L168.557 192.85L170.638 193.253L172.567 193.756L174.276 194.381L177.845 195.036L181.103 195.432L182.083 195.798L182.88 195.767L183.875 196.3L184.452 195.889L184.878 195.181L186.647 194.327L188.28 193.223L189.427 191.821L190.072 190.709L191.196 189.917L192.389 189.688L193.482 189.292L198.092 188.766L202.831 189.185L205.087 188.401L206.947 187.045L209.674 186.664L209.81 186.641L213.873 187.692L214.185 187.083L214.359 186.809L214.283 183.846L215.574 182.489L216.759 181.911L220.822 182.101L221.354 183.015L221.566 184.432L221.931 186.329L222.607 186.847L222.979 187.593L222.903 188.904L223.7 189.879L225.553 192.514L225.781 193.2Z" fill="#AFA8A4" stroke="white" stroke-width="0.5"/>
<path d="M354.145 111.569L353.834 112.91L352.961 114.472L351.875 116.087L350.963 118.037L349.748 122.189L348.959 124.108L345.708 127.886L345.48 133.135L345.04 133.516L337.696 135.291L336.732 135.024L335.729 134.003L335.175 133.257L334.833 132.716L334.195 131.261L333.352 130.233L332.106 129.387L330.967 128.412L329.501 128.374L325.537 129.753L322.788 129.905L320.95 129.463L318.505 128.625L313.743 128.496L310.485 129.227L310.158 130.256L307.151 136.654L302.777 139.016L298.98 141.423L297.878 141.911L295.987 141.149L293.838 139.724L292.054 138.978L290.747 139.305L289.327 140.928L288.674 142.566L284.376 143.769L276.895 144.478L274.282 146.093L273.394 148.028L273.356 149.513L273.994 150.777L273.196 152.248L272.847 152.865L267.561 153.185L260.514 153.619L256.299 153.505L252.334 153.406L249.638 152.141L246.342 149.673L242.857 146.39L242.522 146.314L242.006 145.963L239.819 145.712L239.234 145.91L237.928 144.836L237.548 143.442L235.513 139.778L233.227 133.729L233.166 131.977L234.062 129.981L234.89 128.45L235.012 127.239L235.095 126.911L235.786 124.39L237.442 121.038L238.991 119.088L240.107 118.441L242.424 119.027L246.38 119.515L249.426 119.058L252.266 117.557L253.808 116.247L255.121 114.868L255.562 113.969L256.147 113.542L258.494 112.743L259.245 111.813L259.549 110.046L259.754 108.081L260.233 106.618L260.84 105.544L265.184 102.969L265.579 102.055L266.27 101.179L267.561 100.189L268.807 98.7566L270.128 97.8807L271.822 97.9797L273.386 97.797L274.609 97.2941L275.148 97.2483L277.404 97.6521L277.814 99.2976L278.049 101.004L281.907 100.882L284.056 97.2255L285.173 96.7836L286.957 95.5115L288.135 94.3917L288.947 95.085L290.117 97.4464L291.362 99.3357L292.084 100.082L292.16 100.661L292.881 101.012L294.286 101.217L295.22 101.788L295.494 103.548L295.517 105.133L295.076 106.268L294.848 107.273L295.82 107.669L297.248 107.288L298.25 106.717L301.266 108.027L302.329 105.11L303.529 103.617L305.078 102.916L306.491 102.009L307.774 101.362L308.663 101.4L309.05 101.126L310.151 101.202L311.435 101.491L313.174 101.149L315.573 101.865L317.077 103.213L318.551 103.67L320.229 103.594L321.375 102.847L323.038 100.28L324.254 100.318L326.145 99.9145L328.818 99.9373L334.985 100.486L336.526 101.469L340.323 102.725L341.979 104.18L342.708 105.91L343.096 107.106L346.984 108.941L352.748 111.28L354.145 111.569Z" fill="#AFA8A4" stroke="white" stroke-width="0.5"/>
<path d="M139.867 271.8L138.613 272.02L137.982 270.817L138.924 269.407L140.261 269.186L140.497 270.276L139.867 271.8Z" fill="#AFA8A4" stroke="white" stroke-width="0.5"/>
<path d="M470.854 328.032L470.277 331.3L471.621 334.896L474.765 339.87L477.932 342.376L490.729 348.562L493.083 349.087L492.551 351.616L491.777 353.856L490.934 355.349L487.182 356.309L476.838 353.559L474.218 353.3L472.373 353.848L468.956 355.844L465.166 355.204L459.88 356.332L458.407 360.087L454.739 364.376L448.701 367.834L444.387 369.685L437.901 376.297L434.963 380.144L433.725 380.891L432.252 381.485L432.745 379.634L433.474 377.943L433.307 376.663L433.338 374.804L435.494 372.694L437.461 371.163L443.271 368.383L444.805 366.067L440.248 366.12L435.616 366.631L432.707 366.303L430.171 366.493L429.373 364.467L428.758 363.248L429.419 362.868L430.254 362.601L431.743 360.438L433.072 358.845L434.985 356.834L435.472 355.631V354.511L435.008 353.734L434.917 352.805L434.856 351.502L434.963 348.798L439.352 345.842L440.757 345.53L441.236 344.174L440.917 341.035L440.309 338.499L439.519 338.331L438.464 337.592L437.773 336.732L436.664 335.794L434.757 335.216L434.697 334.416L434.894 333.616L435.601 332.793L438.821 332.085L439.2 331.506L439.633 330.074L440.271 328.611L441.031 328.131L442.39 328.177L444.972 327.842L446.772 327.362L448.557 326.356L449.476 325.442L453.349 324.916L454.435 324.452L455.513 324.848L456.964 326.41L459.348 328.649L460.624 329.396L461.581 329.053L463.313 328.238H464.968L466.305 328.383L466.95 327.674L467.96 327.522L470.854 328.032ZM758.493 340.921L759.906 341.493L762.579 342.224L764.235 343.107L765.177 343.343L767.356 341.546L770.591 341.592L773.439 341.797L774.905 342.132L776.705 342.726L778.877 343.13L779.765 342.269L781.033 339.733L781.527 339.413L781.877 339.184L783.486 338.986L785.013 339.177L785.735 339.611L786.456 341.645L788.271 342.368L791.476 345.606L793.435 346.901L793.914 347.442L793.268 348.097L793.526 348.904L794.643 349.956L796.215 350.352L797.916 350.207L798.843 350.588L799.503 351.182L799.678 352.02L799.633 352.553L799.967 353.749L801.296 355.44L802.875 356.476L803.726 357.581L805.108 361.382L805.67 363.477L805.457 365.496L804.5 367.56L802.404 370.127L802.921 371.201L803.392 372.618L803.232 373.646L804.721 376.922L805.396 378.956L804.835 379.428L804.47 380.076L807.144 381.637L810.348 382.948L811.7 383.199L815.376 382.597L817.745 382.468L820.1 383.709L823.525 386.718L827.223 390.634L827.96 391.822L828.279 392.348L829 393.292L828.248 393.277L827.033 392.431L824.094 390.024L822.591 391.06L821.292 392.843L819.872 399.6L818.725 400.316L816.697 400.301L814.214 400.064L812.505 400.4L812.064 400.826L812.292 401.55L812.801 402.662L813.158 404.064L813.264 405.206L814.16 406.242L815.368 407.225L815.421 408.23L815.239 409.655L814.958 410.737L814.654 411.354L815.216 412.999L816.53 414.942L817.365 415.688L817.054 419.383L817.548 421.021L817.927 423.275L817.775 427.023L817.935 427.945L818.383 428.257L819.583 428.402L820.753 428.745L821.162 429.362L821.155 429.811L819.689 431.525L819.515 432.744L819.006 434.458L818.588 435.464L817.282 437.368L816.454 439.303L816.074 440.895L816.325 441.649L818.74 441.877L820.046 443.02L823.532 445.298L824.147 446.219L823.198 447.621L823.213 448.208L823.669 448.954L823.882 450.257L823.798 451.697L823.813 453.601L824.451 453.913L826.82 455.696L828.507 457.478L828.559 458.034L827.747 459.444L827.922 461.066L827.891 461.44L827.162 460.83L825.848 460.609L824.497 460.541L823.646 461.02L822.158 462.293L820.152 463.679L818.527 464.951L817.593 465.827L816.819 465.682L816.218 464.921L815.885 463.854L816.029 459.825L815.672 458.56L814.912 457.676L814.016 457.174L812.953 456.892L811.852 456.861L810.295 458.042L808.085 459.269L804.66 459.17L802.359 458.941L801.25 458.713L796.792 456.839L795.865 456.793L794.202 456.031L792.228 455.429L788.901 456.572L787.466 456.298L785.454 455.307L784.74 455.574L782.492 458.59L778.664 461.813L776.598 462.354L775.619 459.116L774.67 457.859L774.221 457.707L773.265 457.303L772.52 457.532L770.219 459.741L766.528 461.066L763.475 461.874L758.615 462.856L754.863 463.344L753.268 463.382L749.805 462.94L746.752 462.323L743.7 462.346L741.353 462.628L735.915 464.997L726.665 469.865L719.633 472.188L715.691 473.155L712.6 473.704L707.314 473.734L703.008 473.361L700.024 473.399L698.368 472.813L696.006 470.847L693.151 468.905L691.875 468.448L690.212 468.075L687.781 467.854L681.706 470.702L679.815 471.48L677.734 472.058L673.534 473.795L671.674 474.725L669.342 474.641L666.365 474.397L663.783 474.481L662.059 473.163L661.125 471.678L657.609 470.764L655.095 470.497L654.45 471.16L653.781 473.186L652.71 478.358L652.513 479.653L654.73 484.78L654.632 485.557L653.052 485.824L651.237 485.915L650.053 486.372L649.073 487.217L648.48 491.636L646.377 492.443L645.374 493.365L644.341 496.092L643.779 496.153L640.377 494.089L638.782 493.921L640.157 491.781L638.668 487.538L637.043 483.561L638.577 481.017L641.752 477.939L645.085 474.329V472.097L644.911 470.39L643.954 469.21L642.116 467.64L639.041 469.316L636.846 471.167L635.41 471.541L633.853 472.592L633.094 474.496L631.211 475.974L628.135 476.553L623.51 474.969L618.543 472.561L615.733 470.603L613.439 470.131L611.26 470.992L604.828 475.776L598.942 482.754L597.483 483.957L591.94 486.951L588.279 487.949L586.555 487.72L579.257 489.031L575.635 489.221L572.764 490.798L567.197 489.091L563.871 486.905L561.866 484.681L558.6 479.889L556.284 477.612L551.081 475.555L542.014 470.558L539.629 470.009L533.44 469.293L526.916 468.836L525.595 470.657L525.093 477.856L523.977 479.829L523.499 483.553L522.701 484.62L521.448 485.321L519.489 484.148L518.129 483.63L514.962 485.161L508.697 487.301L506.563 487.606L499.303 484.909L496.645 483.173L494.928 481.253L494.351 478L493.273 476.149L493.113 474.877L492.688 473.414L491.222 472.836L489.65 473.948L487.964 473.902L485.853 473.224L480.864 470.489L477.036 470.268L474.727 473.605L472.935 474.664L470.976 474.984L470.862 474.039L472.35 471.876L466.373 472.272L463.222 473.917L460.761 473.658L458.915 472.919L459.189 472.013L461.057 471.678L462.682 470.939L469.153 470.337L470.664 469.735L472.32 467.381L475.327 465.355L475.714 464.487L473.398 464.479L463.48 465.065L456.675 464.746L455.87 465.751L454.845 465.896L454.564 463.161L455.642 461.889L457.085 462.011L460.647 460.906L460.328 458.629L457.784 457.09L457.268 456.176L455.414 455.962L453.918 454.873L453.592 452.131L452.4 449.114L450.699 447.659L450.911 446.859L454.032 445.839L454.678 441.611L454.2 439.013L452.627 438.792L448.048 436.736L446.658 436.956L445.139 434.694L442.481 433.072L441.167 433.666L440.34 434.405L439.109 434.054L437.051 432.645L435.023 431.883L434.127 430.939L435.251 428.417L436.801 428.478L437.081 426.505L435.859 423.207L435.98 421.508L437.332 421.043L438.874 421.363L440.43 423.336L440.939 425.241L440.613 427.099L441.6 428.897L442.306 429.354L442.777 427.457L443.438 427.099L444.349 427.922L446.301 428.333L451.359 427.175L452.331 426.193L448.625 426.307L447.273 425.385L445.8 423.321L444.896 421.447L444.737 420.525L444.228 419.177L444.79 418.453L447.326 417.372L449.552 414.332L448.617 413.456L447.554 413.037L446.4 413.349L445.306 412.306L445.162 410.859L446.035 409.685L446.126 408.07L443.264 404.086L442.466 403.218L443.089 401.915L445.276 399.729L447.357 397.017L447.106 396.126L445.565 395.76L438.259 396.926L435.418 397.931L430.353 398.396L429.988 396.918L430.102 395.593L431.241 393.17L431.135 387.183L431.811 383.93L434.628 382.955L438.084 378.164L443.681 372.496L449.529 372.603L451.868 371.034L455.338 370.942L455.969 372.077L456.364 373.167L459.409 374.736L464.786 374.484L466.092 373.867L467.361 373.007L464.87 370.219L465.659 369.426L467.915 369.335L470.36 369.99L470.474 370.63L469.829 371.506L469.069 373.037L469.791 373.334L476.747 372.405L484.023 373.151L486.339 372.748L492.058 372.778L493.083 371.818L491.351 370.607L489.658 370.188L488.519 369.602L487.379 368.741L491.01 366.036L493.06 365.518L502.728 363.85L509.92 363.02L510.011 362.395H508.97L499.682 361.009L497.442 359.942L494.336 357.39L493.66 356.667L492.878 355.418L493.349 352.759L493.926 350.618L495.073 349.377L498.786 349.186L511.515 351.365L520.582 350.062L530.493 353.231L539.979 352.591L541.931 351.167L544.308 346.573L557.704 338.925L562.39 334.926L567.417 332.732L576.037 330.295L583.244 327.065L585.302 326.691L602.602 328.238L614.487 328.436L619.94 325.381L623.107 326.41L622.811 327.499L622.234 328.436L622.409 330.317L624.261 333.083L626.153 334.964L631.696 337.661L639.405 335.391L640.65 335.642L642.223 336.274L644.941 343.565L647.053 346.131L649.756 347.876L651.981 348.219L653.629 346.398L654.905 345.667L657.692 345.355L662.257 347.853L663.836 350.428L671.605 352.416L678.737 353.414L681.812 355.593L691.852 357.771L695.604 357.436L701.892 355.151L714.134 352.645L722.268 356.141L724.47 356.598L726.369 356.294L729.103 357.253L732.019 356.735L741.018 352.607L743.836 350.26L746.82 349.659L749.464 348.249L756.511 343.641L758.493 340.921ZM427.277 379.794L422.379 380.655L420.86 379.809L422.394 378.126L425.249 377.082L426.176 376.96L427.429 378.636L427.277 379.794Z" fill="url(#paint0_linear_828_12592)" stroke="white" stroke-width="0.5"/>
<path d="M688.247 174.788L687.473 175.139L680.022 174.651L673.939 175.314L669.603 180.243L667.021 180.227L663.383 181.507L660.915 183.099L657.991 186.542L655.728 184.996L652.956 185.042L650.252 185.979L647.002 188.279L645.194 188.683L641.579 188.028L637.364 189.346L628.266 196.864L625.205 202.341L624.089 203.408L622.555 204.741L620.915 205.411L620.049 205.35L624.385 201.465L625.714 200.01L625.942 198.936L625.965 197.192L624.651 195.028L621.105 200.384L619.092 201.161L616.533 202.768L616.404 206.341L616.7 208.991L617.748 212.32L620.224 217.752L625.281 225.484L627.704 228.317L629.482 229.445L631.623 229.605L635.739 227.22L637.494 226.847L641.321 227.754L642.688 226.169L644.678 225.286L647.23 225.171L650.146 225.887L653.305 227.091L652.007 229.81L650.655 231.974L650.176 234.366L649.424 237.024L645.939 238.213L642.21 238.068L638.276 238.837L636.856 237.809L635.914 236.864L634.167 235.92L631.866 235.402L629.8 236.034L627.355 239.652L623.026 242.12L621.598 244.939L617.338 244.307L613.692 244.802L608.429 247.369L604.419 252.854L600 256.274L596.499 257.356L593.21 257.021L591.084 256L586.709 252.404L586.968 251.117L587.575 250.469L588.403 248.611L590.15 241.785L589.914 239.561L588.934 236.065L585.464 233.337L582.677 233.855L581.09 233.132L575.371 228.485L572.257 228.157L568.817 229.094L567.549 228.416L566.615 226.794L573.435 221.043L580.132 216.282L583.072 215.794L587.036 213.57L591.274 210.233L590.674 207.605L589.762 205.655L587.735 206.188L586.261 206.836L582.715 204.748L581.416 203.21L575.865 204.809L572.774 204.573L565.954 206.043L562.817 204.611L556.552 200.589L554.198 199.782L552.193 199.957L551.099 198.632L552.436 197.969L553.993 197.893L555.61 197.405L556.066 196.704L555.967 195.379L552.709 194.373L549.679 194.084L547.757 192.895L546.292 191.532L549.725 191.509L553.18 192.545L558.58 192.926L563.486 193.992L564.709 192.667L567.557 190.366L568.096 189.635L563.326 191.212L558.489 190.206L556.727 188.805L555.23 186.74L554.6 184.386L555.01 182.193L554.486 178.224L552.891 174.682L552.33 172.739L550.643 170.995L552.299 174.941L552.914 177.561L553.909 179.968L553.674 186.337L553.058 188.569L551.069 189.132L548.456 188.797L545.798 188.104L546.459 184.608L545.039 185.819L543.041 189.224L541.28 189.727L537.368 189.353L530.108 191.601L529.607 194.046L528.513 197.344L527.458 199.264L527.131 200.422L524.04 205.381L523.645 205.853L517.805 212.701L517.061 213.212L513.279 214.804L511.039 216.198L509.322 216.822L506.421 216.129L505.213 217.112L504.644 218.331L504.636 220.852L506.11 222.658L507.317 228.652L506.869 231.182L505.722 229.544L503.923 227.815L500.429 226.337L496.594 226.847L492.409 229.346L489.569 230.275L488.081 229.635L487.169 229.673L486.85 230.389L486.918 230.976L487.374 231.433L487.313 231.761L486.721 231.966L480.129 230.207L477.281 228.538L475.041 225.407L476.157 224.394L477.129 223.945L480.562 223.686L481.154 223.366L481.215 222.642L481.473 221.698L481.382 220.319L481.002 218.856L482.506 216.716L484.746 214.949L486.06 213.174L486.258 210.568L488.62 209.296L490.708 207.11L491.225 204.726L491.961 203.225L490.625 199.774L490.343 197.496L490.283 195.584L490.936 194.526L492.888 193.33L494.938 192.4L495.789 192.492L496.1 193.078L496.176 196.963L496.586 197.039L497.239 196.56L498.31 194.274L499.047 194.937L500.186 195.188L501.037 194.594L501.591 194.663L502.275 195.249L503.642 196.08L504.917 196.354L505.973 195.805L506.877 194.815L507.841 195.15L509.672 197.847L510.522 197.55L514.737 197.009L515.413 196.278L515.914 195.615L511.51 192.035L511.73 189.361L511.897 186.291L511.373 184.463L510.514 183.015L507.15 181.332L504.545 179.588L503.999 178.795L503.93 177.775L503.816 176.19L502.783 174.827L502.7 173.669L503.353 171.863L503.512 169.943L503.292 169.182L502.684 168.557L501.515 168.496L499.973 167.384L498.918 165.883L496.077 163.72L495.212 163.37L494.68 162.295L494.422 161.016L495.022 159.424L495.774 156.963L496.297 154.655L496.305 153.276L495.964 149.864L494.483 147.251L493.792 146.908L492.599 147.639L491.24 148.256L490.169 147.677L488.946 146.26L486.987 142.307L483.319 141.515L481.8 141.324L480.365 143.229L479.916 142.65L479.514 141.431L478.754 140.951L477.752 141.515L477.463 140.974L477.896 139.321L476.704 138.506L473.886 138.521L472.383 137.911L472.208 136.67L471.319 135.855L469.725 135.459L468.168 134.445L466.664 132.808L464.409 131.741L461.409 131.246L461.166 131.071L460.885 130.835L458.948 131.947L457.786 132.831L456.359 132.282L454.05 134.247L449.356 134.346L447.056 134.224L445.916 133.737L441.511 136.723L441.048 137.82L440.061 138.186L437.289 138.78L434.372 139.618L433.757 142.505L432.892 144.066L431.327 146.352L425.913 147.144L421.234 148.256L416.442 148.949L410.161 151.737L408.119 154.19L406.099 154.876L404.268 155.082L403.083 153.71L399.097 150.039L397.562 148.302L395.542 147.792L393.347 148.081L391.236 148.934L389.019 149.094L386.505 147.86L386.239 147.982L385.275 148.15L379.032 146.657L378.455 146.405L378.181 146.344L377.323 146.23L372.622 146.413L368.24 143.396L366.896 143.305L365.856 144.523L365.089 145.879L362.066 147.228L361.291 147.769L360.851 147.35L360.646 146.184L360.874 145.148L360.425 144.173L359.279 143.061L358.998 142.596L357.555 142.68L357.16 142.787L357.016 142.764L355.011 141.819L353.689 139.542L351.631 138.33L350.059 137.919L349.345 136.936L348.882 135.634L348.396 134.651L348.343 134.552L348.008 133.059L347.53 132.907L347.447 132.868L345.419 133.128L345.654 127.879L348.897 124.093L349.695 122.181L350.91 118.029L351.821 116.079L352.915 114.464L353.788 112.903L354.099 111.562L354.98 111.41L357.563 112.621L359.879 113.246L360.517 112.651L360.782 111.874L360.676 111.273L358.823 109.483L357.661 108.34L357.585 107.639L358.003 106.062L358.231 104.295L357.965 102.375L356.697 98.117L356.461 96.304L357.669 94.0948L361.603 88.8235L362.916 86.8352L364.709 84.4356L369.577 78.6768L372.645 75.3174L374.726 73.4511L377.771 70.2137L379.108 68.5302L384.667 67.4331L385.358 65.8563L386.376 64.1348L387.165 63.3958L387.272 60.4936L386.239 56.9361L385.411 55.6791L384.796 54.8185L385.199 54.0186L385.814 53.7901L386.573 53.6757L387.515 52.8151L387.302 51.878L384.956 49.5928L383.938 47.833L382.351 43.2931L379.131 38.5699L378.113 37.0389L377.969 35.5915L378.44 34.1441L377.991 32.2932L376.852 29.9315L377.035 29.6726L376.921 26.755L377.733 26.1227L379.017 25.6961L380.824 25.841L382.373 26.2903L384.227 27.6236L384.804 27.4101L387.971 24.8964L391.236 21.1027L392.17 18.9012L392.983 17.8958L395.823 17.3625L398.299 17.1417L399.871 17.1798L403.737 16.8064L406.023 16.3875L408.005 15.7171L412.28 15.4658L418.948 15.9151L423.33 15.9456L426.307 16.3036L433.591 18.3224L436.302 18.6881L437.562 19.7621L439.985 20.1582L444.39 21.2322L448.21 21.8113L450.792 21.5751L452.235 21.8799L454.969 26.6409L455.531 27.197L456.624 27.3111L458.857 26.8999L462.032 27.0598L463.915 28.0578L463.641 30.8837L464.135 31.2952L465.016 31.1353L466.026 29.5431L466.877 27.8902L467.507 27.372L470.75 28.4918L472.231 28.3091L473.598 27.0521L474.433 26.839L476.734 27.73L479.567 28.3547L481.86 28.3928L483.289 29.0709L484.329 32.0189L485.233 32.6282L486.106 32.8112L487.427 30.1754L488.627 29.1546L490.291 28.4005L491.361 28.0729L492.121 27.1361L493.139 26.2294L494.019 26.1534L494.733 26.5037L495.554 27.7607L496.753 30.6248L498.211 33.4967L499.229 34.5403L501.857 33.6567L503.634 32.7577L506.892 32.5901L511.213 31.958L514.517 31.1353L516.582 31.2799L517.835 32.1942L519.742 33.9538L520.258 36.4828L522.734 38.2273L524.762 38.5472L525.453 36.7341L526.638 35.4697L526.189 33.7252L525.992 31.5009L525.103 29.4366L524.511 27.2121L525.597 24.0279L526.782 21.2399L527.374 19.7239L529.25 16.9208L531.171 14.9174L534.049 11.6951L536.153 10.6285L538.052 11.116L539.107 11.5579L541.834 9.64584L546.687 9.54681L550.727 9.79067L551.137 9.85158L553.127 10.8419L555.216 11.6797L556.658 11.7332L558.374 11.5426L560.395 10.423L561.799 9.34131L563.509 3.84127L564.116 3.049L565.058 2.61475L566.599 2.56918L569.531 3.5974L572.964 4.51915L574.953 4.38967L580.254 1.45704L583.208 1L586.717 1.68556L590.165 1.72368L592.762 1.2971L594.547 2.31021L596.749 4.54961L598.739 7.87092L600.82 13.9879L606.888 20.8668L606.987 22.2074L606.493 23.068L603.508 23.8984L600.987 24.348L600.866 25.5211L601.534 26.7932L602.688 28.6518L602.863 31.0439L602.802 33.2377L603.296 35.1726L604.26 35.9649L604.382 36.9322L603.273 38.1206L602.962 38.8519L603.395 39.2481L608.87 39.4766L611.551 40.6268L613.586 41.6781L614.612 41.7771L616.92 41.1067L619.518 40.6801L621.089 40.6192L621.697 41.3961L622.183 43.43L623.095 45.4639L623.945 46.043L625.464 45.9439L626.375 46.043L626.861 46.8122L626.315 47.9701L626.436 49.2271L627.104 50.7659L627.894 54.3234L628.623 55.382L629.109 56.7229V58.2617L628.502 59.6023L628.077 60.6536L628.502 63.0455L630.142 65.7193L631.357 66.3819L632.329 68.7663L634.091 69.5282L636.704 67.5247L638.708 66.4735L641.215 67.06L643.531 67.4331L645.088 68.7968L646.235 70.6707L647.571 71.7143L648.908 71.1659L651.695 71.7143L652.971 73.2303L654.247 74.0834L655.887 72.8492L657.224 71.3259L662.115 69.7337L665.152 69.3375L666.003 69.0253L667.788 67.8827L669.671 67.1209L671.364 67.3266L673.035 69.6955L674.767 71.3259L675.253 73.893L677.364 77.4122L682.612 82.219L684.67 83.6815L686.068 83.4225L686.797 83.0417L687.138 82.5389L687.457 80.1851L688.118 79.3166L689.181 79.2938L693.29 82.219L695.439 82.5389L697.482 82.5923L700.231 84.8622L703.246 86.8352L705.577 87.0409L707.438 86.264L708.714 85.7916L709.504 86.5458L710.233 88.2444L711.448 89.5623L712.846 89.9357L714.858 90.0193L718.351 92.5637L721.632 95.1537L723.683 95.2985L725.422 94.5367L726.956 94.3387L728.027 94.9938L728.331 96.1136L727.541 97.6142V99.7625L728.999 101.819L729.044 103.838L728.627 105.658L727.799 107.334L725.802 109.635L723.956 111.775L721.184 112.667L719.627 113.604L720.037 115.173L721.055 116.635L723.409 117.816L726.083 118.677L726.394 119.629L725.984 120.109L724.267 120.551L721.898 120.101L721.108 120.932L720.014 122.311L719.285 124.794L718.739 127.094L721.313 127.719L722.81 128.656L723.28 130.537L723.812 132.633L723.971 134.514L723.121 135.428L723.068 136.365L723.47 136.83L724.579 137.036L725.422 137.454L725.49 138.445L723.872 140.669L722.361 144.92L721.549 147.175L721.609 149.62L720.698 150.976L719.02 151.151L713.324 151.387L708.365 151.265L706.223 150.915L702.866 150.701L701.203 151.28L699.001 155.181L697.33 156.704L694.573 158.083L691.543 158.479L689.804 160.079L689.189 162.592L689.143 164.817L688.862 165.929L688.209 166.904L687.974 167.597L688.118 168.359L688.824 168.633L689.667 168.984V169.532L689.341 170.225L688.399 170.987L687.974 172.16L688.072 173.41L688.247 174.788ZM556.058 202.341L558.997 203.857L555.998 203.454L549.413 202.029L546.504 200.681L545.753 199.172L545.328 197.116L546.953 199.271L548.092 200.216L556.058 202.341Z" fill="url(#paint1_linear_828_12592)" stroke="white" stroke-width="0.5"/>
<path d="M138.887 330.059L138.703 330.082L138.635 329.983L138.703 329.853L138.864 329.83L138.887 330.059Z" fill="#AFA8A4" stroke="white" stroke-width="0.5"/>
</g>
<defs>
<linearGradient id="paint0_linear_828_12592" x1="462.252" y1="390.968" x2="801.413" y2="424.939" gradientUnits="userSpaceOnUse">
<stop stop-color="#AFA8A4"/>
<stop offset="0.749167" stop-color="#AFA8A4" stop-opacity="0"/>
</linearGradient>
<linearGradient id="paint1_linear_828_12592" x1="469.245" y1="169.224" x2="505.2" y2="83.3188" gradientUnits="userSpaceOnUse">
<stop stop-color="#AFA8A4"/>
<stop offset="1" stop-color="#AFA8A4" stop-opacity="0"/>
</linearGradient>
</defs>
</svg>
