<svg width="121" height="87" viewBox="0 0 121 87" fill="none" xmlns="http://www.w3.org/2000/svg">
<path d="M25.875 34.5C22.6406 34.5 19.9453 35.3086 17.25 36.1172V34.5C17.25 25.0664 24.7969 17.25 34.5 17.25C39.082 17.25 43.125 13.4766 43.125 8.625C43.125 4.04297 39.082 0 34.5 0C15.3633 0 0 15.6328 0 34.5V60.375C0 74.9297 11.3203 86.25 25.875 86.25C40.1602 86.25 51.75 74.9297 51.75 60.375C51.75 46.0898 40.1602 34.5 25.875 34.5ZM94.875 34.5C91.6406 34.5 88.9453 35.3086 86.25 36.1172V34.5C86.25 25.0664 93.7969 17.25 103.5 17.25C108.082 17.25 112.125 13.4766 112.125 8.625C112.125 4.04297 108.082 0 103.5 0C84.3633 0 69 15.6328 69 34.5V60.375C69 74.9297 80.3203 86.25 94.875 86.25C109.16 86.25 120.75 74.9297 120.75 60.375C120.75 46.0898 109.16 34.5 94.875 34.5Z" fill="#D6CEC0" fill-opacity="0.4"/>
</svg>
